<?xml version="1.0" encoding="UTF-8"?>
<svg width="436px" height="24px" viewBox="0 0 436 24" version="1.1" xmlns="http://www.w3.org/2000/svg" xmlns:xlink="http://www.w3.org/1999/xlink">
    <title>Logos/TIBCO-WF/Reporting Server Black</title>
    <defs>
        <polygon id="path-1" points="0 24 435.054 24 435.054 0 0 0"></polygon>
    </defs>
    <g id="WF-Business-Cluster-View-header" stroke="none" stroke-width="1" fill="none" fill-rule="evenodd">
        <g id="Business-Cluster-View-Header---New" transform="translate(-54.000000, -16.000000)">
            <g id="Group" transform="translate(54.000000, 16.000000)">
                <g id="Group-51" transform="translate(0.000000, 0.000000)">
                    <polygon id="Fill-1" fill="#050302" points="0 2.46287143 0 4.7043 6.135 4.7043 6.135 19.9717286 8.48785714 19.9717286 8.48785714 4.7043 14.6232857 4.7043 14.6232857 2.46287143"></polygon>
                    <polygon id="Fill-2" fill="#050302" points="17.424 19.9718571 19.7772857 19.9718571 19.7772857 2.463 17.424 2.463"></polygon>
                    <g id="Group-50">
                        <path d="M29.7437143,12.2958857 L26.298,12.2958857 L26.298,17.7871714 L30.108,17.7871714 C32.7132857,17.7871714 34.0024286,16.8618857 34.0024286,15.0413143 C34.0024286,13.0240286 32.2092857,12.2958857 29.7437143,12.2958857 M29.9117143,4.64802857 L26.298,4.64802857 L26.298,10.1388857 L29.5474286,10.1388857 C32.0687143,10.1388857 33.4414286,9.0186 33.4414286,7.30945714 C33.4414286,5.6286 32.2092857,4.64802857 29.9117143,4.64802857 M36.3827143,15.0138857 C36.3827143,17.9830286 34.3941429,19.9716 29.8838571,19.9716 L23.9164286,19.9716 L23.9164286,2.46317143 L29.7158571,2.46317143 C33.9462857,2.46317143 35.823,4.36774286 35.823,7.11317143 C35.823,8.90631429 34.7862857,10.2228857 32.8251429,10.9514571 C35.1505714,11.5394571 36.3827143,13.0527429 36.3827143,15.0138857" id="Fill-3" fill="#050302"></path>
                        <path d="M51.9072,5.65637143 C50.3664857,4.64794286 48.9376286,4.1718 47.1170571,4.1718 C43.3070571,4.1718 40.7574857,6.80537143 40.7574857,11.1476571 C40.7574857,15.4890857 43.3349143,18.2628 47.1732,18.2628 C49.0499143,18.2628 50.8987714,17.5063714 52.1309143,16.5540857 L52.5230571,18.9352286 C51.0946286,19.8318 49.0773429,20.3919429 47.1170571,20.3919429 C41.9900571,20.3919429 38.3480571,16.8343714 38.3480571,11.2590857 C38.3480571,5.68422857 42.0183429,2.04222857 47.1170571,2.04222857 C49.1060571,2.04222857 51.2347714,2.6028 52.6636286,3.4998 L51.9072,5.65637143 Z" id="Fill-5" fill="#050302"></path>
                        <path d="M67.0892571,3.27788571 C66.8295429,3.11802857 66.5595429,2.97188571 66.2792571,2.84074286 C63.9911143,7.22888571 59.8318286,12.4480286 54.3302571,15.4176 C54.6474,16.1294571 55.0485429,16.7731714 55.5229714,17.3440286 C60.2539714,14.0911714 64.6348286,8.65088571 67.0892571,3.27788571" id="Fill-7" fill="#050302"></path>
                        <path d="M66.0714,2.74722857 C64.9399714,2.2548 63.6585429,1.99037143 62.2682571,1.99037143 C57.1215429,1.99037143 53.4855429,5.9628 53.4855429,11.1935143 C53.4855429,12.0759429 53.5794,12.9073714 53.7559714,13.6839429 C59.0214,11.5376571 63.6992571,6.80665714 66.0714,2.74722857" id="Fill-9" fill="#050302"></path>
                        <path d="M67.2868286,3.40092857 C64.5859714,10.0416429 61.2958286,14.7417857 57.0919714,18.7840714 C58.5118286,19.7697857 60.2792571,20.3123571 62.2682571,20.3123571 C67.4158286,20.3123571 71.0509714,16.3120714 71.0509714,11.0813571 C71.0509714,7.61507143 69.6161143,4.92707143 67.2868286,3.40092857" id="Fill-11" fill="#050302"></path>
                        <polygon id="Fill-13" fill="#050302" points="78.0052714 2.45005714 80.1549857 2.45005714 85.1555571 17.0249143 89.9551286 2.39991429 91.5807 2.39991429 96.3802714 17.0249143 101.380843 2.45005714 103.455986 2.45005714 97.2057 20.0750571 95.5308429 20.0750571 90.7299857 5.87477143 85.9055571 20.0750571 84.2555571 20.0750571"></polygon>
                        <path d="M113.554114,12.7248857 C113.329114,10.3754571 111.978686,8.37488571 109.429114,8.37488571 C107.2044,8.37488571 105.504257,10.2246 105.228686,12.7248857 L113.554114,12.7248857 Z M109.778829,18.5748857 C111.5544,18.5748857 112.804114,17.8501714 113.853686,16.7504571 L115.054114,17.8248857 C113.754257,19.2747429 112.178829,20.2501714 109.728686,20.2501714 C106.178829,20.2501714 103.279114,17.5253143 103.279114,13.5001714 C103.279114,9.75017143 105.904114,6.75017143 109.479257,6.75017143 C113.303829,6.75017143 115.504543,9.80031429 115.504543,13.5996 C115.504543,13.7753143 115.504543,13.9746 115.479257,14.2750286 L105.228686,14.2750286 C105.504257,16.9998857 107.503971,18.5748857 109.778829,18.5748857 L109.778829,18.5748857 Z" id="Fill-15" fill="#050302"></path>
                        <path d="M128.952557,13.5251143 L128.952557,13.4749714 C128.952557,10.4248286 126.853414,8.47525714 124.403271,8.47525714 C122.002414,8.47525714 119.727557,10.4998286 119.727557,13.4496857 L119.727557,13.4998286 C119.727557,16.4998286 122.002414,18.4995429 124.403271,18.4995429 C126.9027,18.4995429 128.952557,16.6498286 128.952557,13.5251143 M119.802557,17.4752571 L119.802557,19.9502571 L117.877414,19.9502571 L117.877414,1.69997143 L119.802557,1.69997143 L119.802557,9.62511429 C120.853414,8.07497143 122.377414,6.74982857 124.752986,6.74982857 C127.852843,6.74982857 130.927843,9.19997143 130.927843,13.4496857 L130.927843,13.4998286 C130.927843,17.7255429 127.8777,20.2249714 124.752986,20.2249714 C122.353414,20.2249714 120.802843,18.9251143 119.802557,17.4752571" id="Fill-17" fill="#050302"></path>
                        <polygon id="Fill-19" fill="#050302" points="133.801586 2.45005714 146.376729 2.45005714 146.376729 4.27491429 135.776871 4.27491429 135.776871 10.5252 145.251729 10.5252 145.251729 12.3247714 135.776871 12.3247714 135.776871 19.9503429 133.801586 19.9503429"></polygon>
                        <path d="M163.851,11.25 L163.851,11.1998571 C163.851,7.22442857 160.950429,3.97457143 156.950143,3.97457143 C152.950714,3.97457143 150.100714,7.17471429 150.100714,11.1505714 L150.100714,11.1998571 C150.100714,15.1748571 153.000429,18.4251429 157.000714,18.4251429 C161.001,18.4251429 163.851,15.225 163.851,11.25 M148.050857,11.25 L148.050857,11.1998571 C148.050857,6.375 151.675286,2.14971429 157.000714,2.14971429 C162.325714,2.14971429 165.900857,6.32485714 165.900857,11.1505714 C165.926143,11.1745714 165.926143,11.1745714 165.900857,11.1998571 C165.900857,16.0255714 162.275571,20.25 156.950143,20.25 C151.626,20.25 148.050857,16.0748571 148.050857,11.25" id="Fill-21" fill="#050302"></path>
                        <path d="M168.2991,11.25 L168.2991,11.1998571 C168.2991,6.24985714 171.999814,2.14971429 177.1491,2.14971429 C180.324386,2.14971429 182.224243,3.27471429 183.974529,4.92471429 L182.624529,6.375 C181.149386,4.97442857 179.499814,3.97457143 177.124243,3.97457143 C173.249529,3.97457143 170.348957,7.125 170.348957,11.1505714 L170.348957,11.1998571 C170.348957,15.2502857 173.274386,18.4251429 177.124243,18.4251429 C179.524671,18.4251429 181.099243,17.5002857 182.7741,15.9 L184.074386,17.1745714 C182.249529,19.0255714 180.249814,20.25 177.074957,20.25 C172.023814,20.25 168.2991,16.275 168.2991,11.25" id="Fill-23" fill="#050302"></path>
                        <path d="M186.248014,12.6252857 L186.248014,2.45014286 L188.2233,2.45014286 L188.2233,12.4997143 C188.2233,16.275 190.223014,18.4002857 193.573157,18.4002857 C196.798157,18.4002857 198.848014,16.4498571 198.848014,12.6252857 L198.848014,2.45014286 L200.823729,2.45014286 L200.823729,12.4744286 C200.823729,17.5748571 197.8983,20.2247143 193.523014,20.2247143 C189.197871,20.2247143 186.248014,17.5748571 186.248014,12.6252857" id="Fill-25" fill="#050302"></path>
                        <path d="M203.346514,17.3998286 L204.5718,15.9499714 C206.396657,17.5999714 208.146943,18.4254 210.5718,18.4254 C212.921657,18.4254 214.4718,17.1748286 214.4718,15.4502571 L214.4718,15.4001143 C214.4718,13.7754 213.597086,12.8496857 209.921657,12.0752571 C205.896943,11.1996857 204.046371,9.89982857 204.046371,7.02497143 L204.046371,6.97525714 C204.046371,4.22468571 206.472086,2.19968571 209.796943,2.19968571 C212.346514,2.19968571 214.172229,2.92482857 215.946514,4.35025714 L214.796657,5.87468571 C213.171943,4.54997143 211.547229,3.97482857 209.7468,3.97482857 C207.471514,3.97482857 206.021657,5.22497143 206.021657,6.79997143 L206.021657,6.84968571 C206.021657,8.50011429 206.921657,9.4254 210.771943,10.2495429 C214.671943,11.1002571 216.471514,12.5248286 216.471514,15.1999714 L216.471514,15.2501143 C216.471514,18.2501143 213.972086,20.1996857 210.4968,20.1996857 C207.7218,20.1996857 205.446514,19.2748286 203.346514,17.3998286" id="Fill-27" fill="#050302"></path>
                        <path d="M73.4291143,2.75558571 C73.7278286,2.75558571 73.8971143,2.60001429 73.8971143,2.37887143 C73.8971143,2.13201429 73.7278286,2.00215714 73.4291143,2.00215714 L72.8698286,2.00215714 L72.8698286,2.75558571 L73.4291143,2.75558571 Z M72.4279714,1.61215714 L73.4676857,1.61215714 C73.9746857,1.61215714 74.3514,1.85901429 74.3514,2.33944286 C74.3514,2.71658571 74.1306857,2.95058571 73.8182571,3.04187143 L74.4294,3.9123 L73.8971143,3.9123 L73.3511143,3.11987143 L72.8698286,3.11987143 L72.8698286,3.9123 L72.4279714,3.9123 L72.4279714,1.61215714 Z M75.3131143,2.80744286 L75.3131143,2.79501429 C75.3131143,1.69015714 74.4555429,0.780728571 73.3121143,0.780728571 C72.1811143,0.780728571 71.3106857,1.70344286 71.3106857,2.80744286 L71.3106857,2.82072857 C71.3106857,3.92515714 72.1686857,4.83501429 73.3121143,4.83501429 C74.4426857,4.83501429 75.3131143,3.9123 75.3131143,2.80744286 L75.3131143,2.80744286 Z M71.0509714,2.82072857 L71.0509714,2.80744286 C71.0509714,1.57315714 72.0512571,0.533442857 73.3121143,0.533442857 C74.5849714,0.533442857 75.5728286,1.5603 75.5728286,2.79501429 L75.5728286,2.80744286 C75.5728286,4.04215714 74.5725429,5.08187143 73.3121143,5.08187143 C72.0388286,5.08187143 71.0509714,4.05501429 71.0509714,2.82072857 L71.0509714,2.82072857 Z" id="Fill-29" fill="#050302"></path>
                        <path d="M220.0152,2.75558571 C220.313914,2.75558571 220.4832,2.60001429 220.4832,2.37887143 C220.4832,2.13201429 220.313914,2.00215714 220.0152,2.00215714 L219.455914,2.00215714 L219.455914,2.75558571 L220.0152,2.75558571 Z M219.014057,1.61215714 L220.053771,1.61215714 C220.560343,1.61215714 220.937486,1.85901429 220.937486,2.33944286 C220.937486,2.71658571 220.716771,2.95058571 220.404343,3.04187143 L221.015486,3.9123 L220.4832,3.9123 L219.9372,3.11987143 L219.455914,3.11987143 L219.455914,3.9123 L219.014057,3.9123 L219.014057,1.61215714 Z M221.8992,2.80744286 L221.8992,2.79501429 C221.8992,1.69015714 221.041629,0.780728571 219.8982,0.780728571 C218.7672,0.780728571 217.896771,1.70344286 217.896771,2.80744286 L217.896771,2.82072857 C217.896771,3.92515714 218.754771,4.83501429 219.8982,4.83501429 C221.028771,4.83501429 221.8992,3.9123 221.8992,2.80744286 L221.8992,2.80744286 Z M217.637057,2.82072857 L217.637057,2.80744286 C217.637057,1.57315714 218.637343,0.533442857 219.8982,0.533442857 C221.171057,0.533442857 222.158914,1.5603 222.158914,2.79501429 L222.158914,2.80744286 C222.158914,4.04215714 221.158629,5.08187143 219.8982,5.08187143 C218.624914,5.08187143 217.637057,4.05501429 217.637057,2.82072857 L217.637057,2.82072857 Z" id="Fill-31" fill="#050302"></path>
                        <mask id="mask-2" fill="white">
                            <use xlink:href="#path-1"></use>
                        </mask>
                        <g id="Clip-34"></g>
                        <polygon id="Fill-33" fill="#000000" mask="url(#mask-2)" points="229.292571 23.1505714 230.917714 23.1505714 230.917714 0 229.292571 0"></polygon>
                        <path d="M249.217071,11.3747143 C251.842071,11.3747143 253.717071,10.0251429 253.717071,7.77514286 L253.717071,7.725 C253.717071,5.57485714 252.066643,4.275 249.241929,4.275 L243.841929,4.275 L243.841929,11.3747143 L249.217071,11.3747143 Z M241.867071,2.45014286 L249.391929,2.45014286 C251.542071,2.45014286 253.267071,3.09942857 254.367214,4.2 C255.217071,5.04985714 255.717214,6.27514286 255.717214,7.65 L255.717214,7.70014286 C255.717214,10.5998571 253.717071,12.3 250.966929,12.8001429 L256.342071,19.9504286 L253.917214,19.9504286 L248.842071,13.1502857 L248.791929,13.1502857 L243.841929,13.1502857 L243.841929,19.9504286 L241.867071,19.9504286 L241.867071,2.45014286 Z" id="Fill-35" fill="#000000" mask="url(#mask-2)"></path>
                        <path d="M267.840643,12.7248857 C267.616071,10.3750286 266.265643,8.37488571 263.715643,8.37488571 C261.490929,8.37488571 259.790786,10.2250286 259.515643,12.7248857 L267.840643,12.7248857 Z M264.065786,18.5748857 C265.840929,18.5748857 267.090643,17.8501714 268.140643,16.7504571 L269.341071,17.8248857 C268.040786,19.2747429 266.465786,20.2501714 264.015643,20.2501714 C260.465786,20.2501714 257.565643,17.5253143 257.565643,13.5001714 C257.565643,9.75017143 260.190643,6.75017143 263.765786,6.75017143 C267.590786,6.75017143 269.791071,9.80031429 269.791071,13.6000286 C269.791071,13.7748857 269.791071,13.9750286 269.765786,14.2750286 L259.515643,14.2750286 C259.790786,17.0003143 261.790929,18.5748857 264.065786,18.5748857 L264.065786,18.5748857 Z" id="Fill-36" fill="#000000" mask="url(#mask-2)"></path>
                        <path d="M283.239514,13.5251143 L283.239514,13.4749714 C283.239514,10.4248286 281.139943,8.47525714 278.6898,8.47525714 C276.289371,8.47525714 274.014514,10.4998286 274.014514,13.4496857 L274.014514,13.4998286 C274.014514,16.4998286 276.289371,18.4999714 278.6898,18.4999714 C281.189657,18.4999714 283.239514,16.6498286 283.239514,13.5251143 L283.239514,13.5251143 Z M272.164371,7.02497143 L274.089514,7.02497143 L274.089514,9.62468571 C275.139943,8.07497143 276.664371,6.74982857 279.039514,6.74982857 C282.1398,6.74982857 285.2148,9.19997143 285.2148,13.4496857 L285.2148,13.4998286 C285.2148,17.7251143 282.164657,20.2249714 279.039514,20.2249714 C276.639943,20.2249714 275.089371,18.9251143 274.089514,17.4752571 L274.089514,23.9501143 L272.164371,23.9501143 L272.164371,7.02497143 Z" id="Fill-37" fill="#000000" mask="url(#mask-2)"></path>
                        <path d="M298.463443,13.5502286 L298.463443,13.5000857 C298.463443,10.7250857 296.388729,8.45022857 293.663443,8.45022857 C290.863586,8.45022857 288.938443,10.7250857 288.938443,13.4499429 L288.938443,13.5000857 C288.938443,16.2746571 290.988729,18.5246571 293.713586,18.5246571 C296.513443,18.5246571 298.463443,16.2746571 298.463443,13.5502286 M286.963586,13.5502286 L286.963586,13.5000857 C286.963586,9.84994286 289.813157,6.75008571 293.713586,6.75008571 C297.588729,6.75008571 300.4383,9.80022857 300.4383,13.4499429 L300.4383,13.5000857 C300.4383,17.1498 297.563443,20.2500857 293.663443,20.2500857 C289.788729,20.2500857 286.963586,17.1999429 286.963586,13.5502286" id="Fill-38" fill="#000000" mask="url(#mask-2)"></path>
                        <path d="M302.912357,7.02497143 L304.8375,7.02497143 L304.8375,10.3999714 C305.787643,8.24982857 307.662643,6.69968571 310.112786,6.79997143 L310.112786,8.87468571 L309.962357,8.87468571 C307.137214,8.87468571 304.8375,10.9001143 304.8375,14.8001143 L304.8375,19.9502571 L302.912357,19.9502571 L302.912357,7.02497143 Z" id="Fill-39" fill="#000000" mask="url(#mask-2)"></path>
                        <path d="M312.711771,16.5251143 L312.711771,8.72511429 L310.911771,8.72511429 L310.911771,7.02497143 L312.711771,7.02497143 L312.711771,3.12454286 L314.636914,3.12454286 L314.636914,7.02497143 L318.737057,7.02497143 L318.737057,8.72511429 L314.636914,8.72511429 L314.636914,16.2748286 C314.636914,17.8502571 315.511629,18.4254 316.811486,18.4254 C317.462057,18.4254 318.011914,18.3002571 318.686914,17.9749714 L318.686914,19.6249714 C318.011914,19.9751143 317.286771,20.1752571 316.361914,20.1752571 C314.286771,20.1752571 312.711771,19.1501143 312.711771,16.5251143" id="Fill-40" fill="#000000" mask="url(#mask-2)"></path>
                        <path d="M321.311143,19.9504286 L323.236286,19.9504286 L323.236286,7.02514286 L321.311143,7.02514286 L321.311143,19.9504286 Z M321.186429,4.2 L323.386286,4.2 L323.386286,2.07514286 L321.186429,2.07514286 L321.186429,4.2 Z" id="Fill-41" fill="#000000" mask="url(#mask-2)"></path>
                        <path d="M326.710629,7.02497143 L328.635771,7.02497143 L328.635771,9.27497143 C329.486057,7.87482857 330.835629,6.74982857 333.060771,6.74982857 C336.185486,6.74982857 338.010771,8.85025714 338.010771,11.9252571 L338.010771,19.9502571 L336.086057,19.9502571 L336.086057,12.4001143 C336.086057,9.99968571 334.785771,8.49968571 332.510914,8.49968571 C330.285771,8.49968571 328.635771,10.1248286 328.635771,12.5501143 L328.635771,19.9502571 L326.710629,19.9502571 L326.710629,7.02497143 Z" id="Fill-42" fill="#000000" mask="url(#mask-2)"></path>
                        <path d="M351.559843,12.8747143 L351.559843,12.825 C351.559843,10.1751429 349.260129,8.45014286 346.809986,8.45014286 C344.359843,8.45014286 342.334843,10.1502857 342.334843,12.8001429 L342.334843,12.8498571 C342.334843,15.4504286 344.409557,17.25 346.809986,17.25 C349.260129,17.25 351.559843,15.4748571 351.559843,12.8747143 M340.959986,22.2004286 L341.8347,20.7004286 C343.309843,21.7752857 344.959843,22.35 346.809986,22.35 C349.659557,22.35 351.510129,20.775 351.510129,17.7501429 L351.510129,16.2248571 C350.385129,17.7248571 348.8097,18.9501429 346.434986,18.9501429 C343.335129,18.9501429 340.359557,16.6251429 340.359557,12.9 L340.359557,12.8498571 C340.359557,9.075 343.359557,6.75 346.434986,6.75 C348.859843,6.75 350.434843,7.95 351.484843,9.34971429 L351.484843,7.02514286 L353.409557,7.02514286 L353.409557,17.7004286 C353.409557,19.7001429 352.809986,21.225 351.759986,22.2754286 C350.6097,23.4248571 348.885129,24 346.834843,24 C344.6847,24 342.684557,23.4004286 340.959986,22.2004286" id="Fill-43" fill="#000000" mask="url(#mask-2)"></path>
                        <path d="M362.382514,17.3998286 L363.607371,15.9499714 C365.432657,17.5999714 367.182514,18.4254 369.607371,18.4254 C371.957657,18.4254 373.5078,17.1752571 373.5078,15.4502571 L373.5078,15.4001143 C373.5078,13.7749714 372.632657,12.8501143 368.957657,12.0748286 C364.932514,11.1996857 363.082371,9.89982857 363.082371,7.02497143 L363.082371,6.97525714 C363.082371,4.22468571 365.507657,2.19968571 368.832514,2.19968571 C371.382514,2.19968571 373.2078,2.92482857 374.982514,4.34982857 L373.832657,5.87468571 C372.207943,4.54997143 370.5828,3.97482857 368.7828,3.97482857 C366.507514,3.97482857 365.057229,5.22497143 365.057229,6.79997143 L365.057229,6.84968571 C365.057229,8.49968571 365.957657,9.4254 369.807514,10.2495429 C373.707943,11.1002571 375.507514,12.5248286 375.507514,15.1999714 L375.507514,15.2501143 C375.507514,18.2501143 373.007657,20.2001143 369.5328,20.2001143 C366.757371,20.2001143 364.482514,19.2748286 362.382514,17.3998286" id="Fill-44" fill="#000000" mask="url(#mask-2)"></path>
                        <path d="M387.681643,12.7248857 C387.457071,10.3750286 386.106643,8.37488571 383.556643,8.37488571 C381.331929,8.37488571 379.631786,10.2250286 379.356643,12.7248857 L387.681643,12.7248857 Z M383.906786,18.5748857 C385.681929,18.5748857 386.931643,17.8501714 387.981643,16.7504571 L389.182071,17.8248857 C387.881786,19.2747429 386.306786,20.2501714 383.856643,20.2501714 C380.306786,20.2501714 377.406643,17.5253143 377.406643,13.5001714 C377.406643,9.75017143 380.031643,6.75017143 383.606786,6.75017143 C387.431786,6.75017143 389.632071,9.80031429 389.632071,13.6000286 C389.632071,13.7748857 389.632071,13.9750286 389.606786,14.2750286 L379.356643,14.2750286 C379.631786,17.0003143 381.631929,18.5748857 383.906786,18.5748857 L383.906786,18.5748857 Z" id="Fill-45" fill="#000000" mask="url(#mask-2)"></path>
                        <path d="M392.005843,7.02497143 L393.930986,7.02497143 L393.930986,10.3999714 C394.881129,8.24982857 396.756129,6.69968571 399.206271,6.79997143 L399.206271,8.87468571 L399.055843,8.87468571 C396.2307,8.87468571 393.930986,10.9001143 393.930986,14.8001143 L393.930986,19.9502571 L392.005843,19.9502571 L392.005843,7.02497143 Z" id="Fill-46" fill="#000000" mask="url(#mask-2)"></path>
                        <polygon id="Fill-47" fill="#000000" mask="url(#mask-2)" points="399.8553 7.02497143 401.980157 7.02497143 406.330157 17.7499714 410.705014 7.02497143 412.780157 7.02497143 407.155157 20.0501143 405.455014 20.0501143"></polygon>
                        <path d="M423.529286,12.7248857 C423.304714,10.3750286 421.954286,8.37488571 419.404286,8.37488571 C417.179571,8.37488571 415.479429,10.2250286 415.204286,12.7248857 L423.529286,12.7248857 Z M419.754429,18.5748857 C421.529571,18.5748857 422.779286,17.8501714 423.829286,16.7504571 L425.029714,17.8248857 C423.729429,19.2747429 422.154429,20.2501714 419.704286,20.2501714 C416.154429,20.2501714 413.254286,17.5253143 413.254286,13.5001714 C413.254286,9.75017143 415.879286,6.75017143 419.454429,6.75017143 C423.279429,6.75017143 425.479714,9.80031429 425.479714,13.6000286 C425.479714,13.7748857 425.479714,13.9750286 425.454429,14.2750286 L415.204286,14.2750286 C415.479429,17.0003143 417.479571,18.5748857 419.754429,18.5748857 L419.754429,18.5748857 Z" id="Fill-48" fill="#000000" mask="url(#mask-2)"></path>
                        <path d="M427.853486,7.02497143 L429.778629,7.02497143 L429.778629,10.3999714 C430.728771,8.24982857 432.603771,6.69968571 435.053914,6.79997143 L435.053914,8.87468571 L434.903486,8.87468571 C432.078343,8.87468571 429.778629,10.9001143 429.778629,14.8001143 L429.778629,19.9502571 L427.853486,19.9502571 L427.853486,7.02497143 Z" id="Fill-49" fill="#000000" mask="url(#mask-2)"></path>
                    </g>
                </g>
            </g>
        </g>
    </g>
</svg>
