<svg width="274" height="280" viewBox="0 0 274 280" fill="none" xmlns="http://www.w3.org/2000/svg">
<path d="M55.5962 107.469L81.8859 58.0986L111.919 84.7997C112.86 85.6352 113.979 86.244 115.192 86.5792C116.404 86.9144 117.678 86.9672 118.914 86.7334C120.161 86.4998 121.337 85.9809 122.351 85.2172C123.364 84.4535 124.187 83.4658 124.756 82.3312L147.466 37.1163L139.978 33.4135L117.391 78.6696L87.3578 51.9685C86.4411 51.1161 85.3421 50.484 84.1444 50.1204C82.9466 49.7568 81.6817 49.6713 80.4459 49.8703C79.2255 50.0728 78.0664 50.5478 77.0549 51.2601C76.0435 51.9724 75.2056 52.9036 74.6038 53.9845L52.8397 95.1264V0.5H44.6113V107.469C44.6113 109.651 45.4782 111.744 47.0214 113.287C48.5645 114.83 50.6574 115.697 52.8397 115.697H159.809V107.469H55.5962Z" fill="#7B7B7B" fill-opacity="0.16"/>
<path d="M267.283 181.171H181.971C180.23 181.171 178.561 180.48 177.33 179.249C176.1 178.018 175.408 176.349 175.408 174.609V89.2959H181.971V174.609H267.283V181.171Z" fill="#7B7B7B" fill-opacity="0.16"/>
<path d="M201.656 135.233H208.219V168.046H201.656V135.233ZM191.812 154.921H198.375V168.046H191.812V154.921ZM254.156 108.983H260.719V168.046H254.156V108.983ZM244.313 128.671H250.875V168.046H244.313V128.671ZM224.625 168.046H218.063V122.108H224.625V168.046ZM234.469 168.046H227.906V141.796H234.469V168.046Z" fill="#7B7B7B" fill-opacity="0.16"/>
<path d="M90.0973 259.214V190.56H145.02V259.214H90.0973ZM21.4434 204.291V135.637H76.3665V204.291H21.4434ZM62.6357 190.56V149.368H35.1742V190.56H62.6357ZM21.4434 259.214V218.021H76.3665V259.214H21.4434ZM35.1742 245.483H62.6357V231.752H35.1742V245.483ZM103.828 245.483H131.29V204.291H103.828V245.483ZM90.0973 135.637H145.02V176.829H90.0973V135.637ZM103.828 149.368V163.098H131.29V149.368H103.828Z" fill="#7B7B7B" fill-opacity="0.16"/>
</svg>
