<svg width="89" height="89" viewBox="0 0 89 89" fill="none" xmlns="http://www.w3.org/2000/svg">
<rect width="87.6811" height="87.6811" transform="translate(0.433594 0.868408)" fill="#232F3E"/>
<path d="M85.4847 85.9191H3.06445V3.49889H85.4847V85.9191ZM6.5717 82.4119H81.9774V7.00613H6.5717V82.4119Z" fill="white"/>
<path d="M29.0013 38.9043C28.9778 39.5807 29.0667 40.2562 29.2643 40.9034C29.4538 41.4622 29.6945 42.0023 29.9833 42.5168C30.0809 42.6689 30.1355 42.8447 30.1411 43.0253C30.1274 43.1636 30.0803 43.2964 30.0039 43.4125C29.9276 43.5285 29.8242 43.6243 29.7027 43.6917L28.2998 44.6211C28.1268 44.7497 27.919 44.8231 27.7036 44.8316C27.5771 44.8262 27.4529 44.7955 27.3384 44.7413C27.224 44.687 27.1215 44.6104 27.0372 44.5159C26.7303 44.2003 26.4651 43.8467 26.2481 43.4637C26.0201 43.0955 25.7922 42.6571 25.5466 42.1661C24.7556 43.1447 23.7528 43.931 22.6136 44.4656C21.4745 45.0003 20.2288 45.2693 18.9706 45.2524C18.1506 45.3035 17.3288 45.1885 16.5544 44.9142C15.78 44.64 15.0689 44.2123 14.4638 43.6566C13.9054 43.0872 13.4707 42.4085 13.187 41.6631C12.9034 40.9178 12.7768 40.1218 12.8154 39.3252C12.7821 38.455 12.9481 37.5887 13.3006 36.7925C13.6532 35.9962 14.183 35.291 14.8496 34.7307C16.4032 33.4947 18.3559 32.8709 20.3384 32.9771C21.1305 32.9851 21.9212 33.0436 22.7058 33.1524C23.53 33.2752 24.4594 33.433 25.2836 33.6434V31.995C25.4001 30.7338 25.0229 29.4766 24.2314 28.4878C23.1953 27.6827 21.8896 27.306 20.5839 27.4356C19.7685 27.4418 18.9565 27.5418 18.1639 27.7337C17.339 27.9298 16.53 28.1877 15.7439 28.5053C15.4961 28.6229 15.2377 28.7168 14.9723 28.7859C14.856 28.8032 14.7379 28.8032 14.6216 28.7859C14.3059 28.7859 14.1481 28.5404 14.1481 28.0845V26.9797C14.1264 26.7071 14.1811 26.4338 14.3059 26.1906C14.4726 25.9889 14.6824 25.8271 14.9197 25.7171C15.8326 25.2895 16.7837 24.9489 17.7606 24.7C18.9072 24.4125 20.0857 24.2711 21.2678 24.2791C23.3746 24.0725 25.4783 24.7023 27.1249 26.0327C27.792 26.7765 28.3008 27.6482 28.6204 28.5948C28.94 29.5414 29.0636 30.5432 28.9837 31.5391L29.0013 38.9043ZM19.9 42.3063C20.6888 42.303 21.4713 42.1666 22.2148 41.903C23.0365 41.6193 23.7686 41.1231 24.3366 40.465C24.6973 40.0556 24.9611 39.5701 25.1082 39.0446C25.2591 38.407 25.3298 37.7532 25.3187 37.0981V36.1511C24.631 35.987 23.9342 35.8641 23.2319 35.7829C22.5339 35.6937 21.8312 35.6468 21.1275 35.6426C19.9447 35.55 18.7665 35.8724 17.7956 36.5545C17.4232 36.8682 17.1293 37.2647 16.9374 37.7123C16.7456 38.1599 16.6612 38.6462 16.6909 39.1323C16.661 39.5648 16.7186 39.9989 16.8602 40.4087C17.0018 40.8184 17.2245 41.1954 17.5151 41.5172C17.8407 41.7999 18.2191 42.0151 18.6285 42.1506C19.0379 42.286 19.47 42.339 19.9 42.3063ZM37.9097 44.7088C37.6081 44.7332 37.3066 44.6594 37.0504 44.4984C36.804 44.2634 36.6383 43.9565 36.5769 43.6216L31.3161 26.2782C31.2232 25.999 31.1586 25.7111 31.1232 25.419C31.1148 25.3455 31.1231 25.2712 31.1474 25.2014C31.1718 25.1316 31.2115 25.0682 31.2638 25.016C31.3161 24.9637 31.3794 24.9239 31.4492 24.8996C31.519 24.8752 31.5934 24.8669 31.6668 24.8753H33.8764C34.1836 24.8497 34.491 24.9234 34.7532 25.0858C34.9794 25.3398 35.1364 25.6478 35.2091 25.9801L39.0145 40.7807L42.5217 25.9626C42.5783 25.6284 42.7306 25.3177 42.9601 25.0682C43.2286 24.9057 43.5416 24.832 43.8545 24.8578H45.6081C45.9264 24.833 46.2447 24.9065 46.52 25.0682C46.7431 25.3198 46.8892 25.6303 46.9408 25.9626L50.4481 40.9736L54.3236 25.9626C54.4013 25.6285 54.5645 25.3203 54.7971 25.0682C55.0582 24.9035 55.3664 24.8295 55.6739 24.8578H57.7607C57.8358 24.8488 57.9119 24.8573 57.9832 24.8827C58.0544 24.908 58.1189 24.9494 58.1715 25.0037C58.2241 25.058 58.2635 25.1238 58.2865 25.1958C58.3096 25.2678 58.3156 25.3442 58.3043 25.419C58.3114 25.5416 58.3114 25.6646 58.3043 25.7872L58.1465 26.3308L52.6927 43.6566C52.6314 43.9915 52.4656 44.2985 52.2192 44.5334C51.9401 44.7006 51.6106 44.7627 51.2898 44.7088H49.5362C49.2152 44.7385 48.8936 44.6581 48.6243 44.4808C48.3916 44.2287 48.2443 43.9096 48.2034 43.569L44.6962 29.1366L41.189 43.569C41.1356 43.9094 40.9831 44.2266 40.7505 44.4808C40.4878 44.6581 40.1717 44.7387 39.8562 44.7088H37.9097ZM66.7042 45.305C65.5233 45.3079 64.3463 45.1725 63.1969 44.9017C62.297 44.7163 61.4247 44.4157 60.6016 44.0074C60.3127 43.8743 60.0733 43.6533 59.9176 43.3761C59.8296 43.1769 59.782 42.9624 59.7773 42.7447V41.6049C59.7773 41.149 59.9527 40.9034 60.2859 40.9034C60.4251 40.8789 60.5676 40.8789 60.7068 40.9034L61.2679 41.1314C62.0641 41.4753 62.8923 41.7397 63.7405 41.9205C64.6185 42.094 65.5111 42.1821 66.406 42.1836C67.5465 42.2499 68.6827 41.9947 69.6853 41.4471C70.0416 41.2457 70.34 40.956 70.5519 40.6059C70.7638 40.2557 70.8821 39.857 70.8953 39.4479C70.9024 39.16 70.8517 38.8735 70.7463 38.6055C70.6409 38.3374 70.4829 38.0932 70.2815 37.8872C69.6293 37.3346 68.8627 36.9333 68.0369 36.7123L64.7752 35.6777C63.4036 35.2969 62.1804 34.5079 61.2679 33.4155C60.5147 32.4921 60.0892 31.3449 60.0579 30.1537C60.0363 29.2859 60.2418 28.4275 60.6542 27.6636C61.0744 26.9809 61.6221 26.3855 62.2675 25.91C62.9659 25.382 63.757 24.9894 64.5998 24.7526C65.5176 24.4896 66.4684 24.3596 67.4231 24.3668C67.9273 24.361 68.4312 24.3903 68.9313 24.4545C69.4398 24.4545 69.9308 24.6123 70.3868 24.7175C70.8195 24.8112 71.2468 24.9283 71.6669 25.0682C71.9878 25.1683 72.2989 25.2974 72.5963 25.454C72.858 25.5957 73.0902 25.7862 73.2802 26.0152C73.4188 26.235 73.4862 26.4922 73.4731 26.7517V27.8039C73.4731 28.2774 73.2978 28.5229 72.9646 28.5229C72.6582 28.4813 72.3614 28.3863 72.0878 28.2423C70.7278 27.6505 69.2568 27.3575 67.7739 27.383C66.742 27.3284 65.7139 27.5461 64.7927 28.0143C64.5171 28.2043 64.2856 28.4513 64.1139 28.7387C63.9423 29.0261 63.8345 29.347 63.7979 29.6797C63.7613 30.0125 63.7967 30.3492 63.9018 30.667C64.0069 30.9848 64.1792 31.2762 64.4069 31.5216C65.134 32.1064 65.9767 32.5308 66.8795 32.7666L70.0536 33.7837C71.4174 34.1232 72.6426 34.8767 73.5608 35.9407C74.2517 36.8394 74.6165 37.9463 74.5955 39.0797C74.6285 39.9725 74.4545 40.8608 74.0869 41.675C73.6485 42.4517 73.0509 43.127 72.3333 43.6566C71.5897 44.2258 70.7446 44.6484 69.8431 44.9017C68.8242 45.2019 67.7664 45.3496 66.7042 45.3401V45.305Z" fill="white"/>
<path fill-rule="evenodd" clip-rule="evenodd" d="M70.9297 56.23C63.5645 61.6838 52.8674 64.5773 43.6433 64.5773C31.3414 64.6359 19.4603 60.1023 10.3245 51.8635C9.64061 51.2322 10.3245 50.3905 11.0786 50.864C21.2248 56.6654 32.7097 59.7179 44.3974 59.7198C53.143 59.661 61.7906 57.8731 69.8425 54.4589C71.1051 53.9854 72.1572 55.3357 70.9297 56.23Z" fill="#FF9900"/>
<path fill-rule="evenodd" clip-rule="evenodd" d="M74.0854 52.7227C73.1384 51.5127 67.8425 52.1616 65.4576 52.4421C64.7386 52.5298 64.6334 51.8985 65.2822 51.4426C69.5084 48.4789 76.4177 49.3382 77.2244 50.3203C78.031 51.3023 77.0139 58.2642 73.0507 61.5785C72.4545 62.087 71.8758 61.824 72.1388 61.1401C72.9631 58.913 74.9446 53.9327 74.0854 52.7227Z" fill="#FF9900"/>
</svg>
