<svg width="259" height="260" viewBox="0 0 259 260" fill="none" xmlns="http://www.w3.org/2000/svg">
<path d="M143.166 147.206C140.686 147.211 138.269 147.985 136.247 149.421C134.225 150.857 132.698 152.885 131.876 155.225H118.541C117.669 151.784 115.675 148.732 112.873 146.552C110.072 144.372 106.624 143.188 103.074 143.188C99.5242 143.188 96.0759 144.372 93.2745 146.552C90.4731 148.732 88.4785 151.784 87.6064 155.225H70.4309C69.7298 152.489 68.3173 149.987 66.3366 147.974C64.356 145.96 61.8779 144.507 59.1539 143.761C56.4299 143.015 53.5571 143.003 50.827 143.727C48.097 144.45 45.607 145.883 43.61 147.88C41.6129 149.878 40.1799 152.368 39.4564 155.098C38.7328 157.828 38.7446 160.7 39.4905 163.424C40.2364 166.148 41.6898 168.627 43.7032 170.607C45.7166 172.588 48.2183 174 50.9541 174.701V191.877C47.5133 192.749 44.4615 194.744 42.2815 197.545C40.1016 200.346 38.918 203.795 38.918 207.344C38.918 210.894 40.1016 214.342 42.2815 217.144C44.4615 219.945 47.5133 221.94 50.9541 222.812V236.147C48.2791 237.092 46.0246 238.953 44.589 241.401C43.1534 243.848 42.6291 246.724 43.1089 249.52C43.5887 252.317 45.0416 254.853 47.2109 256.682C49.3802 258.511 52.1261 259.514 54.9633 259.514C57.8006 259.514 60.5465 258.511 62.7158 256.682C64.8851 254.853 66.338 252.317 66.8178 249.52C67.2976 246.724 66.7733 243.848 65.3377 241.401C63.9021 238.953 61.6476 237.092 58.9726 236.147V222.812C61.4681 222.165 63.7696 220.923 65.68 219.192L79.167 225.935C79.0877 226.417 79.0381 226.903 79.0186 227.39C79.0076 230.177 79.9604 232.881 81.7155 235.045C83.4706 237.209 85.92 238.699 88.6485 239.264C91.377 239.828 94.2167 239.431 96.6862 238.141C99.1557 236.851 101.103 234.747 102.198 232.185C103.293 229.623 103.469 226.761 102.695 224.084C101.921 221.407 100.245 219.081 97.9519 217.499C95.6585 215.916 92.8886 215.176 90.1116 215.403C87.3346 215.629 84.7215 216.809 82.7151 218.743L70.0941 212.432C70.6727 210.797 70.9788 209.078 71.0002 207.344C70.9897 203.799 69.8031 200.357 67.6266 197.558C65.45 194.759 62.4064 192.761 58.9726 191.877V174.701C61.7288 173.983 64.2436 172.542 66.2577 170.528C68.2718 168.514 69.7123 165.999 70.4309 163.243H87.6064C88.1013 165.264 88.9907 167.166 90.2235 168.842C91.4563 170.518 93.0082 171.933 94.7899 173.007C96.5716 174.081 98.548 174.792 100.605 175.099C102.663 175.406 104.761 175.304 106.778 174.798L114.039 187.507C112.15 189.688 111.095 192.468 111.06 195.353C111.026 198.238 112.014 201.042 113.851 203.268C115.687 205.493 118.252 206.997 121.091 207.511C123.93 208.026 126.86 207.518 129.36 206.078C131.86 204.638 133.77 202.359 134.75 199.645C135.73 196.932 135.717 193.958 134.714 191.253C133.71 188.548 131.781 186.285 129.268 184.867C126.755 183.449 123.822 182.967 120.987 183.506L113.855 171.021C116.137 168.936 117.765 166.235 118.541 163.243H131.876C132.615 165.317 133.909 167.147 135.618 168.535C137.326 169.922 139.383 170.814 141.564 171.111C143.745 171.409 145.966 171.101 147.984 170.222C150.002 169.343 151.739 167.926 153.006 166.126C154.273 164.326 155.021 162.213 155.168 160.017C155.315 157.82 154.856 155.626 153.84 153.673C152.825 151.721 151.292 150.085 149.409 148.944C147.527 147.803 145.367 147.202 143.166 147.206V147.206ZM62.9818 207.344C62.9818 208.93 62.5115 210.481 61.6304 211.799C60.7493 213.118 59.497 214.146 58.0319 214.752C56.5667 215.359 54.9545 215.518 53.399 215.209C51.8436 214.899 50.4149 214.136 49.2935 213.014C48.1721 211.893 47.4084 210.464 47.099 208.909C46.7896 207.353 46.9484 205.741 47.5553 204.276C48.1622 202.811 49.1899 201.558 50.5085 200.677C51.8272 199.796 53.3775 199.326 54.9633 199.326C57.0893 199.328 59.1276 200.174 60.6309 201.677C62.1342 203.18 62.9797 205.218 62.9818 207.344V207.344ZM54.9633 167.252C53.3775 167.252 51.8272 166.782 50.5085 165.901C49.1899 165.02 48.1622 163.768 47.5553 162.302C46.9484 160.837 46.7896 159.225 47.099 157.67C47.4084 156.114 48.1721 154.685 49.2935 153.564C50.4149 152.443 51.8436 151.679 53.399 151.37C54.9545 151.06 56.5667 151.219 58.0319 151.826C59.497 152.433 60.7493 153.46 61.6304 154.779C62.5115 156.098 62.9818 157.648 62.9818 159.234C62.9797 161.36 62.1342 163.398 60.6309 164.901C59.1276 166.405 57.0893 167.25 54.9633 167.252V167.252ZM95.0555 159.234C95.0555 157.648 95.5257 156.098 96.4068 154.779C97.2879 153.46 98.5402 152.433 100.005 151.826C101.471 151.219 103.083 151.06 104.638 151.37C106.194 151.679 107.622 152.443 108.744 153.564C109.865 154.685 110.629 156.114 110.938 157.67C111.248 159.225 111.089 160.837 110.482 162.302C109.875 163.768 108.847 165.02 107.529 165.901C106.21 166.782 104.66 167.252 103.074 167.252C100.948 167.25 98.9096 166.405 97.4064 164.901C95.9031 163.398 95.0576 161.36 95.0555 159.234V159.234Z" fill="#373737" fill-opacity="0.1"/>
<g clip-path="url(#clip0_334_31)">
<path d="M31.3398 85.4113C31.3398 83.352 32.1579 81.377 33.6141 79.9208C35.0702 78.4647 37.0452 77.6466 39.1045 77.6466C41.1638 77.6466 43.1388 78.4647 44.595 79.9208C46.0511 81.377 46.8692 83.352 46.8692 85.4113V93.176C46.8692 95.2353 46.0511 97.2103 44.595 98.6664C43.1388 100.123 41.1638 100.941 39.1045 100.941C37.0452 100.941 35.0702 100.123 33.6141 98.6664C32.1579 97.2103 31.3398 95.2353 31.3398 93.176V85.4113ZM77.9279 54.3526C77.9279 52.2932 78.746 50.3183 80.2021 48.8621C81.6583 47.406 83.6333 46.5879 85.6926 46.5879C87.7519 46.5879 89.7269 47.406 91.1831 48.8621C92.6392 50.3183 93.4573 52.2932 93.4573 54.3526V93.176C93.4573 95.2353 92.6392 97.2103 91.1831 98.6664C89.7269 100.123 87.7519 100.941 85.6926 100.941C83.6333 100.941 81.6583 100.123 80.2021 98.6664C78.746 97.2103 77.9279 95.2353 77.9279 93.176V54.3526ZM54.6339 69.8819C54.6339 67.8226 55.4519 65.8476 56.9081 64.3915C58.3643 62.9353 60.3392 62.1172 62.3986 62.1172C64.4579 62.1172 66.4329 62.9353 67.889 64.3915C69.3452 65.8476 70.1632 67.8226 70.1632 69.8819V93.176C70.1632 95.2353 69.3452 97.2103 67.889 98.6664C66.4329 100.123 64.4579 100.941 62.3986 100.941C60.3392 100.941 58.3643 100.123 56.9081 98.6664C55.4519 97.2103 54.6339 95.2353 54.6339 93.176V69.8819Z" fill="#373737" fill-opacity="0.1"/>
<path d="M31.339 11.6475H23.5743C19.4556 11.6475 15.5057 13.2836 12.5934 16.1959C9.68105 19.1082 8.04492 23.0582 8.04492 27.1768V108.706C8.04492 112.825 9.68105 116.775 12.5934 119.687C15.5057 122.599 19.4556 124.235 23.5743 124.235H101.221C105.34 124.235 109.29 122.599 112.202 119.687C115.114 116.775 116.75 112.825 116.75 108.706V27.1768C116.75 23.0582 115.114 19.1082 112.202 16.1959C109.29 13.2836 105.34 11.6475 101.221 11.6475H93.4564V19.4121H101.221C103.28 19.4121 105.255 20.2302 106.712 21.6864C108.168 23.1425 108.986 25.1175 108.986 27.1768V108.706C108.986 110.765 108.168 112.74 106.712 114.196C105.255 115.653 103.28 116.471 101.221 116.471H23.5743C21.515 116.471 19.54 115.653 18.0838 114.196C16.6277 112.74 15.8096 110.765 15.8096 108.706V27.1768C15.8096 25.1175 16.6277 23.1425 18.0838 21.6864C19.54 20.2302 21.515 19.4121 23.5743 19.4121H31.339V11.6475Z" fill="#373737" fill-opacity="0.1"/>
<path d="M74.0446 7.76468C75.0742 7.76468 76.0617 8.17371 76.7898 8.90179C77.5179 9.62987 77.9269 10.6174 77.9269 11.647V19.4117C77.9269 20.4414 77.5179 21.4288 76.7898 22.1569C76.0617 22.885 75.0742 23.294 74.0446 23.294H50.7505C49.7209 23.294 48.7334 22.885 48.0053 22.1569C47.2772 21.4288 46.8682 20.4414 46.8682 19.4117V11.647C46.8682 10.6174 47.2772 9.62987 48.0053 8.90179C48.7334 8.17371 49.7209 7.76468 50.7505 7.76468H74.0446ZM50.7505 0C47.6616 0 44.6991 1.22709 42.5148 3.41133C40.3306 5.59557 39.1035 8.55804 39.1035 11.647V19.4117C39.1035 22.5007 40.3306 25.4631 42.5148 27.6474C44.6991 29.8316 47.6616 31.0587 50.7505 31.0587H74.0446C77.1336 31.0587 80.096 29.8316 82.2803 27.6474C84.4645 25.4631 85.6916 22.5007 85.6916 19.4117V11.647C85.6916 8.55804 84.4645 5.59557 82.2803 3.41133C80.096 1.22709 77.1336 0 74.0446 0L50.7505 0Z" fill="#373737" fill-opacity="0.1"/>
</g>
<path d="M258.521 127.409V52.5198L223.047 17.0459H179.69C175.509 17.0459 171.498 18.707 168.542 21.6637C165.585 24.6204 163.924 28.6306 163.924 32.8121V127.409C163.924 131.591 165.585 135.601 168.542 138.558C171.498 141.514 175.509 143.175 179.69 143.175H242.755C246.936 143.175 250.946 141.514 253.903 138.558C256.86 135.601 258.521 131.591 258.521 127.409ZM223.047 40.6952C223.047 43.8313 224.293 46.8389 226.51 49.0565C228.728 51.274 231.736 52.5198 234.872 52.5198H250.638V87.9937H171.807V32.8121C171.807 30.7214 172.637 28.7163 174.116 27.2379C175.594 25.7595 177.599 24.929 179.69 24.929H223.047V40.6952ZM171.807 111.643V95.8768H187.573V111.643H171.807ZM171.807 119.526H187.573V135.292H179.69C177.599 135.292 175.594 134.462 174.116 132.983C172.637 131.505 171.807 129.5 171.807 127.409V119.526ZM195.456 135.292V119.526H219.105V135.292H195.456ZM226.989 135.292V119.526H250.638V127.409C250.638 129.5 249.807 131.505 248.329 132.983C246.851 134.462 244.845 135.292 242.755 135.292H226.989ZM250.638 111.643H226.989V95.8768H250.638V111.643ZM195.456 111.643V95.8768H219.105V111.643H195.456Z" fill="#373737" fill-opacity="0.1"/>
<defs>
<clipPath id="clip0_334_31">
<rect width="124.235" height="124.235" fill="white" transform="translate(0.279297)"/>
</clipPath>
</defs>
</svg>
