<svg width="187" height="51" viewBox="0 0 187 51" fill="none" xmlns="http://www.w3.org/2000/svg">
<g clip-path="url(#clip0_175_462)">
<path d="M39.2165 50.0595C35.06 50.0595 31.8763 49.0184 29.6593 46.9362C27.4454 44.853 26.3379 41.8882 26.3379 38.0368C26.3379 34.2696 27.3711 31.2622 29.4345 29.0155C31.4988 26.7679 34.3864 25.6436 38.0991 25.6436C41.4711 25.6436 44.007 26.5975 45.7038 28.5014C47.4027 30.4063 48.2526 33.1334 48.2526 36.6826V39.271H33.2185C33.2829 40.3399 33.4998 41.2364 33.8663 41.9516C34.2309 42.6727 34.7143 43.2423 35.3166 43.6692C35.904 44.0932 36.5905 44.3983 37.374 44.5855C38.1576 44.7668 39.0114 44.8589 39.9416 44.8589C40.74 44.8589 41.5236 44.7668 42.2923 44.5855C43.0649 44.3983 43.7712 44.1546 44.4111 43.8545C44.9708 43.593 45.4928 43.3116 45.9683 43.0105C46.4478 42.7113 46.8341 42.4429 47.1352 42.2101H47.8613V48.1507C47.3007 48.3815 46.7856 48.6004 46.322 48.7975C45.8574 48.9956 45.2194 49.1967 44.4111 49.4047C43.6672 49.6078 42.8975 49.7683 42.106 49.8862C41.3175 50.0001 40.3517 50.0595 39.2165 50.0595ZM41.4899 34.9352C41.4503 33.4137 41.1135 32.2577 40.4815 31.4613C39.8455 30.6668 38.8757 30.2676 37.5691 30.2676C36.2388 30.2676 35.1947 30.6866 34.4419 31.5237C33.69 32.3577 33.276 33.4949 33.1997 34.9352H41.4899Z" fill="#231F21"/>
<path d="M73.6162 49.4422H66.7157V37.9969C66.7157 37.0648 66.6801 36.1366 66.6058 35.2084C66.5364 34.2862 66.4037 33.6047 66.2046 33.1668C65.9718 32.6468 65.631 32.2733 65.1873 32.0465C64.7425 31.8206 64.1462 31.7067 63.4032 31.7067C62.8416 31.7067 62.272 31.8177 61.6984 32.0356C61.1219 32.2565 60.5077 32.6052 59.8539 33.0836V49.4422H52.9941V26.3655H59.8539V28.9133C60.9793 27.9118 62.0729 27.1322 63.1387 26.5676C64.2016 26.0079 65.3834 25.7275 66.6761 25.7275C68.9247 25.7275 70.6414 26.4715 71.8321 27.9573C73.0218 29.4432 73.6162 31.5987 73.6162 34.4189V49.4422Z" fill="#231F21"/>
<path d="M100.035 37.9188C100.035 41.7157 99.0452 44.7053 97.065 46.8896C95.0858 49.0758 92.2814 50.1674 88.6589 50.1674C85.07 50.1674 82.2755 49.0758 80.2825 46.8896C78.2924 44.7053 77.2988 41.7157 77.2988 37.9188C77.2988 34.0823 78.2924 31.0788 80.2825 28.9065C82.2755 26.7351 85.07 25.6484 88.6589 25.6484C92.2686 25.6484 95.0699 26.743 97.0561 28.9263C99.0422 31.1135 100.035 34.11 100.035 37.9188ZM92.9947 37.9604C92.9947 36.5904 92.8847 35.4503 92.6697 34.5389C92.4548 33.6256 92.1576 32.8975 91.7792 32.3507C91.3711 31.7722 90.9134 31.373 90.4053 31.1472C89.8951 30.9223 89.3117 30.8084 88.6589 30.8084C88.0477 30.8084 87.491 30.9084 86.9947 31.1066C86.4994 31.3057 86.0427 31.6851 85.6257 32.2467C85.2334 32.7816 84.9194 33.5147 84.6836 34.4458C84.4489 35.378 84.331 36.5479 84.331 37.9604C84.331 39.372 84.4419 40.5122 84.6638 41.3819C84.8867 42.2526 85.172 42.947 85.5276 43.4661C85.8912 44.003 86.3488 44.3933 86.8976 44.6399C87.4444 44.8866 88.0526 45.0084 88.7173 45.0084C89.2671 45.0084 89.8278 44.8866 90.3944 44.6399C90.963 44.3933 91.4176 44.0238 91.7554 43.5305C92.1636 42.9421 92.4696 42.2308 92.6806 41.4027C92.8906 40.5736 92.9947 39.4265 92.9947 37.9604Z" fill="#231F21"/>
<path d="M118.588 14.1494V27.4738C117.606 26.9428 116.014 26.1573 115.151 25.9275C114.401 25.7274 113.47 25.5471 112.319 25.5471C111.054 25.5471 109.849 25.8393 108.714 26.4218C107.574 27.0042 106.609 27.7928 105.813 28.7932C105.621 29.032 105.443 29.2856 105.274 29.5451C103.694 31.6422 102.902 34.397 102.902 37.8125C102.902 41.6055 103.897 44.5961 105.891 46.7833C107.884 48.9685 110.677 50.0611 114.272 50.0611C117.893 50.0611 120.692 48.9685 122.671 46.7833C124.59 44.6644 125.599 41.7858 125.658 38.1572V14.1494H118.588ZM118.289 41.2944C118.082 42.1255 117.773 42.8328 117.369 43.4232C117.029 43.9155 116.574 44.286 116.005 44.5327C115.439 44.7763 114.879 44.9031 114.331 44.9031C113.664 44.9031 113.056 44.7763 112.508 44.5327C111.958 44.286 111.502 43.8947 111.133 43.3618C110.782 42.8397 110.495 42.1444 110.273 41.2746C110.049 40.4059 109.938 39.2637 109.938 37.8531C109.938 36.4416 110.058 35.2697 110.292 34.3375C110.527 33.4064 110.844 32.6744 111.233 32.1384C111.65 31.5788 112.11 31.1954 112.606 30.9973C113.102 30.8012 113.656 30.7001 114.272 30.7001C114.925 30.7001 115.507 30.816 116.014 31.0399C116.527 31.2657 116.985 31.6659 117.388 32.2405C117.768 32.7903 118.064 33.5203 118.279 34.4297C118.496 35.341 118.603 36.4832 118.603 37.8531C118.603 39.3172 118.499 40.4663 118.289 41.2944Z" fill="#231F21"/>
<path d="M15.6869 14.1494V27.4738C14.7033 26.9428 13.1114 26.1573 12.2476 25.9275C11.4987 25.7274 10.5676 25.5471 9.4175 25.5471C8.15252 25.5471 6.94797 25.8393 5.81177 26.4218C4.67259 27.0042 3.70677 27.7928 2.90935 28.7932C2.71916 29.032 2.54085 29.2856 2.37146 29.5451C0.792469 31.6422 0 34.397 0 37.8125C0 41.6055 0.995538 44.5961 2.9886 46.7833C4.98265 48.9685 7.77412 50.0611 11.3699 50.0611C14.9905 50.0611 17.7909 48.9685 19.7691 46.7833C21.6879 44.6644 22.6973 41.7858 22.7557 38.1572V14.1494H15.6869ZM15.3887 41.2944C15.1797 42.1255 14.8727 42.8328 14.4665 43.4232C14.1267 43.9155 13.6721 44.286 13.1035 44.5327C12.5369 44.7763 11.9762 44.9031 11.4284 44.9031C10.7617 44.9031 10.1545 44.7763 9.6067 44.5327C9.05692 44.286 8.59828 43.8947 8.23276 43.3618C7.8811 42.8397 7.59383 42.1444 7.36996 41.2746C7.14707 40.4059 7.03613 39.2637 7.03613 37.8531C7.03613 36.4416 7.15599 35.2697 7.38977 34.3375C7.62454 33.4064 7.93954 32.6744 8.33181 32.1384C8.74984 31.5788 9.20848 31.1954 9.70477 30.9973C10.2001 30.8012 10.7538 30.7001 11.3699 30.7001C12.0237 30.7001 12.6042 30.816 13.1124 31.0399C13.6235 31.2657 14.0822 31.6659 14.4873 32.2405C14.8657 32.7903 15.1619 33.5203 15.3788 34.4297C15.5948 35.341 15.7008 36.4832 15.7008 37.8531C15.7008 39.3172 15.5968 40.4663 15.3887 41.2944Z" fill="#231F21"/>
<path d="M152.08 37.8124C152.08 41.6053 151.091 44.5969 149.111 46.7811C147.132 48.9683 144.329 50.061 140.712 50.061C137.118 50.061 134.323 48.9683 132.331 46.7811C130.337 44.5969 129.342 41.6053 129.342 37.8124C129.342 33.9748 130.337 30.9714 132.331 28.802C134.323 26.6287 137.118 25.543 140.712 25.543C144.317 25.543 147.113 26.6336 149.1 28.8218C151.088 31.008 152.08 34.0016 152.08 37.8124ZM145.043 37.851C145.043 36.482 144.937 35.3418 144.723 34.4325C144.505 33.5202 144.207 32.7901 143.827 32.2423C143.422 31.6668 142.962 31.2676 142.453 31.0407C141.946 30.8159 141.365 30.7 140.712 30.7C140.099 30.7 139.54 30.801 139.046 30.9991C138.549 31.1972 138.091 31.5786 137.674 32.1403C137.283 32.6732 136.969 33.4062 136.732 34.3404C136.498 35.2695 136.378 36.4414 136.378 37.851C136.378 39.2626 136.488 40.4057 136.714 41.2745C136.935 42.1462 137.222 42.8396 137.576 43.3606C137.94 43.8946 138.398 44.2878 138.948 44.5325C139.496 44.7801 140.102 44.902 140.77 44.902C141.32 44.902 141.879 44.7801 142.444 44.5325C143.014 44.2878 143.468 43.9164 143.807 43.423C144.213 42.8336 144.522 42.1234 144.73 41.2943C144.938 40.4671 145.043 39.3181 145.043 37.851Z" fill="#231F21"/>
<path d="M158.111 19.9443L161.65 26.0662L155.521 29.6025L151.982 23.4748L158.111 19.9443Z" fill="#F0534A"/>
<path d="M165.535 28.3076H172.614V35.3863H165.535V28.3076Z" fill="#F0534A"/>
<path d="M176.5 26.0652L180.04 19.9443L186.169 23.4758L182.629 29.6016L176.5 26.0652Z" fill="#F0534A"/>
<path d="M180.041 15.4503L176.502 9.32159L182.629 5.78223L186.17 11.912L180.041 15.4503Z" fill="#F0534A"/>
<path d="M172.615 21.236H165.537V14.1553H172.615V21.236Z" fill="#231F21"/>
<path d="M172.615 7.07775H165.537V-0.000976562L172.615 1.4023e-05V7.07775Z" fill="#F0534A"/>
<path d="M161.65 9.32158L158.111 15.4513L151.982 11.9129L155.521 5.7832L161.65 9.32158Z" fill="#F0534A"/>
</g>
<defs>
<clipPath id="clip0_175_462">
<rect width="186.168" height="50.1677" fill="white"/>
</clipPath>
</defs>
</svg>
