<svg width="176" height="29" viewBox="0 0 176 29" fill="none" xmlns="http://www.w3.org/2000/svg">
<path d="M10.9035 13.6199V11.1292L19.8961 11.1147V18.9923C18.5156 20.0929 17.0917 20.9231 15.6243 21.4831C14.1569 22.0333 12.6509 22.3085 11.1062 22.3085C9.02099 22.3085 7.12399 21.8644 5.41525 20.9762C3.71616 20.0784 2.43219 18.7848 1.56334 17.0953C0.694483 15.4059 0.260057 13.5186 0.260057 11.4333C0.260057 9.36738 0.689656 7.44143 1.54885 5.65545C2.41771 3.85982 3.66306 2.52758 5.28492 1.65873C6.90678 0.789875 8.77481 0.355449 10.889 0.355449C12.424 0.355449 13.8093 0.606451 15.045 1.10845C16.2904 1.6008 17.2654 2.29106 17.9702 3.17922C18.6749 4.06738 19.2107 5.22585 19.5776 6.65463L17.0434 7.34971C16.7248 6.26848 16.329 5.41893 15.856 4.80108C15.3829 4.18323 14.7071 3.69088 13.8286 3.32403C12.9501 2.94753 11.9751 2.75928 10.9035 2.75928C9.61953 2.75928 8.50933 2.95718 7.5729 3.35299C6.63647 3.73915 5.87864 4.25081 5.2994 4.88796C4.72982 5.52512 4.28574 6.22503 3.96716 6.98769C3.42654 8.30063 3.15623 9.72458 3.15623 11.2596C3.15623 13.1517 3.47964 14.735 4.12645 16.0093C4.78292 17.2836 5.73383 18.2297 6.97919 18.8475C8.22454 19.4654 9.54713 19.7743 10.9469 19.7743C12.1633 19.7743 13.3508 19.5426 14.5092 19.0792C15.6677 18.6062 16.5462 18.1042 17.1448 17.5732V13.6199H10.9035ZM56.2576 23.2208L58.7918 23.5973C58.898 24.3792 59.1924 24.9488 59.6751 25.306C60.3219 25.7887 61.2053 26.03 62.3251 26.03C63.5318 26.03 64.4635 25.7887 65.1199 25.306C65.7764 24.8233 66.2205 24.1475 66.4522 23.2787C66.5873 22.7477 66.6501 21.6327 66.6404 19.9336C65.5012 21.2755 64.0821 21.9464 62.383 21.9464C60.2688 21.9464 58.6325 21.1838 57.474 19.6585C56.3155 18.1331 55.7363 16.3037 55.7363 14.1702C55.7363 12.7028 56.0018 11.3513 56.5328 10.1156C57.0637 8.87021 57.8312 7.90964 58.8352 7.23387C59.8489 6.55809 61.0363 6.22021 62.3975 6.22021C64.2125 6.22021 65.7088 6.9539 66.8866 8.4213V6.56775H69.2904V19.8612C69.2904 22.2554 69.0442 23.9496 68.5519 24.944C68.0692 25.948 67.2969 26.7396 66.2349 27.3188C65.1827 27.8981 63.8842 28.1877 62.3396 28.1877C60.5053 28.1877 59.0235 27.7726 57.894 26.9423C56.7645 26.1218 56.219 24.8812 56.2576 23.2208ZM58.4153 13.982C58.4153 15.9996 58.8159 17.4718 59.6172 18.3986C60.4185 19.3254 61.4225 19.7888 62.6292 19.7888C63.8263 19.7888 64.8303 19.3302 65.6412 18.4131C66.4522 17.4863 66.8576 16.0382 66.8576 14.0688C66.8576 12.1863 66.4377 10.7672 65.5978 9.81146C64.7676 8.85573 63.7635 8.37786 62.5858 8.37786C61.4273 8.37786 60.4426 8.8509 59.6317 9.79698C58.8207 10.7334 58.4153 12.1284 58.4153 13.982Z" fill="#4285F4"/>
<path d="M22.7489 14.2571C22.7489 11.4092 23.5405 9.29981 25.1237 7.92895C26.4463 6.78979 28.0585 6.22021 29.9603 6.22021C32.0746 6.22021 33.8026 6.91529 35.1445 8.30545C36.4864 9.68596 37.1573 11.5974 37.1573 14.0399C37.1573 16.0189 36.8581 17.578 36.2595 18.7172C35.6706 19.8467 34.8066 20.7252 33.6674 21.3527C32.5379 21.9802 31.3022 22.294 29.9603 22.294C27.8075 22.294 26.065 21.6037 24.7327 20.2232C23.4102 18.8427 22.7489 16.854 22.7489 14.2571ZM25.4278 14.2571C25.4278 16.2265 25.8574 17.7035 26.7166 18.6882C27.5758 19.6633 28.6571 20.1508 29.9603 20.1508C31.254 20.1508 32.3304 19.6585 33.1896 18.6738C34.0488 17.6891 34.4784 16.1879 34.4784 14.1702C34.4784 12.2684 34.044 10.83 33.1751 9.85491C32.3159 8.87021 31.2443 8.37786 29.9603 8.37786C28.6571 8.37786 27.5758 8.86538 26.7166 9.84043C25.8574 10.8155 25.4278 12.2877 25.4278 14.2571ZM90.3746 16.994L93.068 17.327C92.6432 18.9006 91.8565 20.1219 90.7076 20.9907C89.5588 21.8596 88.0914 22.294 86.3055 22.294C84.0561 22.294 82.2701 21.6037 80.9475 20.2232C79.6346 18.8331 78.9781 16.8878 78.9781 14.3874C78.9781 11.8002 79.6442 9.79216 80.9765 8.36338C82.3087 6.9346 84.0368 6.22021 86.1606 6.22021C88.2169 6.22021 89.8967 6.92011 91.2 8.31993C92.5033 9.71975 93.1549 11.6892 93.1549 14.2281C93.1549 14.3826 93.1501 14.6143 93.1404 14.9232H81.6716C81.7681 16.6127 82.246 17.9063 83.1052 18.8041C83.9644 19.7019 85.036 20.1508 86.3199 20.1508C87.2757 20.1508 88.0914 19.8998 88.7672 19.3978C89.443 18.8958 89.9788 18.0945 90.3746 16.994ZM81.8164 12.78H90.4035C90.2877 11.4864 89.9595 10.5162 89.4188 9.86939C88.5886 8.86538 87.5122 8.36338 86.1896 8.36338C84.9925 8.36338 83.9837 8.76401 83.1631 9.56529C82.3522 10.3666 81.9033 11.4381 81.8164 12.78Z" fill="#EA4335"/>
<path d="M39.2571 14.2571C39.2571 11.4092 40.0487 9.29981 41.6319 7.92895C42.9545 6.78979 44.5667 6.22021 46.4685 6.22021C48.5828 6.22021 50.3108 6.91529 51.6527 8.30545C52.9946 9.68596 53.6655 11.5974 53.6655 14.0399C53.6655 16.0189 53.3663 17.578 52.7677 18.7172C52.1788 19.8467 51.3148 20.7252 50.1757 21.3527C49.0461 21.9802 47.8104 22.294 46.4685 22.294C44.3157 22.294 42.5732 21.6037 41.2409 20.2232C39.9184 18.8427 39.2571 16.854 39.2571 14.2571ZM41.936 14.2571C41.936 16.2265 42.3656 17.7035 43.2248 18.6882C44.084 19.6633 45.1653 20.1508 46.4685 20.1508C47.7622 20.1508 48.8386 19.6585 49.6978 18.6738C50.557 17.6891 50.9866 16.1879 50.9866 14.1702C50.9866 12.2684 50.5522 10.83 49.6833 9.85491C48.8241 8.87021 47.7525 8.37786 46.4685 8.37786C45.1653 8.37786 44.084 8.86538 43.2248 9.84043C42.3656 10.8155 41.936 12.2877 41.936 14.2571Z" fill="#FBBC05"/>
<path d="M73.1858 21.9464V0.717471H75.7923V21.9464H73.1858Z" fill="#34A853"/>
<path d="M111.722 22.3023C109.646 22.3023 107.887 21.9168 106.443 21.1457C105.02 20.3746 103.932 19.2081 103.181 17.6462C102.449 16.0843 102.084 14.1269 102.084 11.7741C102.084 8.25486 102.934 5.62529 104.634 3.88542C106.335 2.12578 108.717 1.24596 111.781 1.24596C113.541 1.24596 115.083 1.53265 116.408 2.10601C117.752 2.65961 118.8 3.49988 119.552 4.62684C120.323 5.73403 120.708 7.14768 120.708 8.86777H118.336C118.336 7.58264 118.069 6.53477 117.535 5.72415C117.001 4.89376 116.24 4.28085 115.251 3.88542C114.283 3.47023 113.116 3.26263 111.752 3.26263C110.289 3.26263 109.014 3.54931 107.926 4.12268C106.839 4.69604 105.998 5.59563 105.405 6.82145C104.812 8.0275 104.516 9.60919 104.516 11.5665V12.1893C104.516 14.1071 104.812 15.6592 105.405 16.8455C105.998 18.0317 106.839 18.9017 107.926 19.4553C109.014 20.0089 110.299 20.2857 111.781 20.2857C113.146 20.2857 114.322 20.0879 115.311 19.6925C116.299 19.2773 117.06 18.6644 117.594 17.8538C118.128 17.0234 118.395 15.9656 118.395 14.6805H120.708C120.708 16.4204 120.313 17.8538 119.522 18.9808C118.751 20.1077 117.693 20.948 116.349 21.5016C115.004 22.0354 113.462 22.3023 111.722 22.3023ZM124.28 21.9464V0.504543H126.415V21.9464H124.28ZM136.762 22.3023C135.259 22.3023 133.974 22.0156 132.906 21.4423C131.859 20.8491 131.058 19.9495 130.504 18.7435C129.97 17.5375 129.703 16.0052 129.703 14.1467C129.703 12.2684 129.97 10.7362 130.504 9.54988C131.058 8.34384 131.859 7.45413 132.906 6.88076C133.974 6.28763 135.259 5.99106 136.762 5.99106C138.304 5.99106 139.589 6.28763 140.617 6.88076C141.665 7.45413 142.456 8.34384 142.99 9.54988C143.543 10.7362 143.82 12.2684 143.82 14.1467C143.82 16.0052 143.543 17.5375 142.99 18.7435C142.456 19.9495 141.665 20.8491 140.617 21.4423C139.589 22.0156 138.304 22.3023 136.762 22.3023ZM136.762 20.4933C137.81 20.4933 138.69 20.2857 139.401 19.8705C140.113 19.4553 140.657 18.8127 141.032 17.9428C141.408 17.0531 141.596 15.9063 141.596 14.5026V13.7908C141.596 12.3871 141.408 11.2502 141.032 10.3803C140.657 9.49057 140.113 8.83812 139.401 8.42292C138.69 8.00772 137.81 7.80013 136.762 7.80013C135.714 7.80013 134.834 8.00772 134.122 8.42292C133.411 8.83812 132.867 9.49057 132.491 10.3803C132.116 11.2502 131.928 12.3871 131.928 13.7908V14.5026C131.928 15.9063 132.116 17.0531 132.491 17.9428C132.867 18.8127 133.411 19.4553 134.122 19.8705C134.834 20.2857 135.714 20.4933 136.762 20.4933ZM151.877 22.3023C150.394 22.3023 149.198 21.9267 148.288 21.1754C147.379 20.4241 146.924 19.1093 146.924 17.231V6.34694H149.059V17.0234C149.059 17.7154 149.148 18.2789 149.326 18.7138C149.504 19.1488 149.751 19.4948 150.068 19.7518C150.384 19.9891 150.75 20.1571 151.165 20.256C151.6 20.3549 152.065 20.4043 152.559 20.4043C153.35 20.4043 154.091 20.2165 154.783 19.8408C155.495 19.4454 156.068 18.8918 156.503 18.18C156.938 17.4485 157.156 16.5786 157.156 15.5702V6.34694H159.291V21.9464H157.63L157.393 19.4849H157.185C156.75 20.1967 156.256 20.7602 155.703 21.1754C155.169 21.5708 154.576 21.8575 153.923 22.0354C153.29 22.2134 152.608 22.3023 151.877 22.3023ZM168.744 22.3023C167.459 22.3023 166.351 22.0156 165.422 21.4423C164.493 20.8689 163.781 19.9792 163.287 18.7732C162.812 17.5473 162.575 15.9558 162.575 13.9984C162.575 12.1597 162.822 10.6571 163.317 9.49057C163.811 8.30429 164.513 7.42447 165.422 6.85111C166.351 6.27774 167.439 5.99106 168.684 5.99106C169.357 5.99106 169.989 6.07014 170.582 6.22831C171.176 6.38648 171.709 6.64351 172.184 6.99939C172.658 7.3355 173.074 7.79024 173.429 8.36361H173.607V0.504543H175.743V21.9464H174.082L173.845 19.6629H173.637C173.083 20.5526 172.372 21.2149 171.502 21.6499C170.652 22.0848 169.732 22.3023 168.744 22.3023ZM169.1 20.4339C170.167 20.4339 171.027 20.1967 171.68 19.7222C172.352 19.2477 172.836 18.5656 173.133 17.6759C173.449 16.7862 173.607 15.6987 173.607 14.4136V13.8798C173.607 12.654 173.479 11.6456 173.222 10.8548C172.985 10.0639 172.649 9.45102 172.214 9.01606C171.798 8.58109 171.334 8.28452 170.82 8.12635C170.306 7.94841 169.782 7.85944 169.248 7.85944C168.259 7.85944 167.429 8.06704 166.757 8.48223C166.104 8.87766 165.61 9.51034 165.274 10.3803C164.958 11.2502 164.799 12.3871 164.799 13.7908V14.5322C164.799 15.9953 164.977 17.1618 165.333 18.0317C165.689 18.8819 166.183 19.4948 166.816 19.8705C167.468 20.2461 168.23 20.4339 169.1 20.4339Z" fill="black"/>
</svg>
