<svg width="297px" height="53px" viewBox="0 0 297 53" version="1.1" xmlns="http://www.w3.org/2000/svg" xmlns:xlink="http://www.w3.org/1999/xlink">
    <title>Group 37</title>
    <g id="Symbols" stroke="none" stroke-width="1" fill="none" fill-rule="evenodd">
        <g id="Group-37">
            <path d="M16.2659,53 C14.6439,52.168 13.1039,51.003 11.8979,49.505 C10.6499,48.008 9.6099,46.302 8.9439,44.347 C8.2369,42.392 7.8209,40.229 7.8209,38.023 C7.8209,24.711 18.9289,17.473 17.7219,3.994 C17.7219,3.203 17.5559,2.455 17.3479,1.789 C17.0979,1.082 16.7659,0.458 16.3079,0 C17.9299,0.832 19.4699,1.997 20.6759,3.495 C21.9239,4.992 22.9639,6.698 23.6299,8.653 C24.2949,10.608 24.7529,12.771 24.7529,14.977 C24.7529,26.5 14.2279,34.945 14.2279,47.301 C14.2279,48.424 14.4359,49.505 14.7679,50.462 C15.1839,51.336 15.6419,52.251 16.2659,53" id="Fill-1" fill="#006E9A"></path>
            <path d="M26.2502,52.251 C25.1272,51.71 24.1282,50.878 23.2962,49.921 C22.4642,48.923 21.7572,47.758 21.3002,46.427 C20.8422,45.096 20.5512,43.681 20.5512,42.184 C20.5512,33.239 28.7462,28.164 27.4572,16.641 C29.0382,18.055 30.3692,20.593 31.1182,22.465 C31.5752,23.796 31.8662,25.21 31.8662,26.708 C31.8662,34.404 24.8362,40.062 24.8362,48.382 C24.8362,49.131 24.9602,49.88 25.2102,50.504 C25.4602,51.211 25.8342,51.793 26.2502,52.251" id="Fill-3" fill="#00AEEF"></path>
            <path d="M5.6995,37.0669 C4.5755,36.5259 3.5775,35.6939 2.7455,34.7369 C1.9135,33.7389 1.2065,32.5739 0.7485,31.2429 C0.2915,29.9109 0.0005,28.4969 0.0005,26.9989 C0.0005,18.0549 8.1955,12.9799 6.9065,1.4559 C8.4865,2.8709 9.8185,5.4079 10.5665,7.2799 C11.0245,8.6109 11.3155,10.0259 11.3155,11.5239 C11.3155,19.2199 4.2845,24.8779 4.2845,33.1979 C4.2845,33.9469 4.4095,34.6949 4.6595,35.3189 C4.9085,36.0269 5.2835,36.6089 5.6995,37.0669" id="Fill-5" fill="#00AEEF"></path>
            <polygon id="Fill-7" fill="#00AEEF" points="56.6013 39.4736 56.6013 27.1116 45.1003 27.1116 45.1003 39.4736 40.1803 39.4736 40.1803 11.4896 45.1003 11.4896 45.1003 23.1756 56.6013 23.1756 56.6013 11.4896 61.4603 11.4896 61.4603 39.4736"></polygon>
            <path d="M73.0842,27.7266 C74.6222,27.6646 77.1432,27.4186 78.6192,27.2346 C78.6192,26.9266 78.6812,26.5576 78.6812,26.1886 C78.6812,22.9296 77.5122,21.0836 73.9452,21.0836 C69.3942,21.0836 68.7792,23.9136 68.7792,27.7886 L73.0842,27.7266 Z M68.9022,30.9856 C69.1482,35.1066 71.3002,36.0906 74.6222,36.0906 C77.5122,36.0906 80.0952,35.7836 82.2482,35.5376 L82.6172,38.9816 C80.2802,39.3506 77.4512,39.7806 73.3922,39.7806 C66.1962,39.7806 64.3512,35.1066 64.3512,28.7716 C64.3512,21.0226 66.7492,17.7636 73.8842,17.7636 C81.6332,17.7636 83.2322,21.8226 83.2322,28.2186 C83.2322,28.7716 83.2322,29.2646 83.1702,29.7556 C80.7722,30.2476 75.6052,30.6786 72.5922,30.8636 L68.9022,30.9856 Z" id="Fill-9" fill="#00AEEF"></path>
            <path d="M98.8538,28.8335 C97.0088,28.8955 94.7948,28.8955 93.0108,29.3875 C90.7968,29.9405 89.9368,30.5555 89.9368,33.0775 C89.9368,35.7215 91.4128,36.4595 94.1798,36.4595 C95.5948,36.4595 97.3158,36.3985 98.6078,35.7835 C98.6698,34.9225 98.7918,33.9375 98.7918,32.8925 L98.7918,28.8955 L98.8538,28.8955 L98.8538,28.8335 Z M85.6308,33.1385 C85.6308,29.3875 87.2908,27.0495 91.4128,26.4355 C93.7498,26.0655 96.3328,25.9425 98.9768,25.8815 C98.9768,22.9295 97.6238,21.4535 94.4258,21.4535 C91.8428,21.4535 89.1978,21.6995 86.9838,22.0065 L86.6148,18.6245 C88.9518,18.2545 91.7198,17.8245 94.9178,17.8245 C99.5918,17.8245 103.5278,19.0545 103.5278,24.5285 L103.5278,33.9995 C103.5278,35.4145 103.4668,36.6445 103.3438,37.9365 C100.9448,39.2895 97.8088,39.7805 93.7498,39.7805 C87.8448,39.7805 85.6308,37.5055 85.6308,33.1385 L85.6308,33.1385 Z" id="Fill-11" fill="#00AEEF"></path>
            <path d="M107.0955,9.7676 L111.7085,9.7676 L111.7085,33.7536 C111.7085,35.7216 112.1995,37.1366 113.2455,38.6126 L109.2475,40.4576 C107.8335,38.9196 107.0335,36.9516 107.0335,33.9996 L107.0955,9.7676 Z" id="Fill-13" fill="#00AEEF"></path>
            <path d="M127.9446,39.4736 C126.8996,39.6576 125.6696,39.7806 124.7466,39.7806 C120.3806,39.7806 118.5966,37.9356 118.5966,33.9376 L118.5966,21.4526 L115.0286,21.4526 L115.0286,18.0706 L118.5966,18.0706 L118.5966,12.7816 L123.2096,11.9816 L123.2096,18.0086 L127.6376,18.0086 L127.6376,21.3916 L123.2096,21.3916 L123.2096,33.5076 C123.2096,35.5366 124.0696,36.2136 126.0996,36.2136 C126.6526,36.2136 127.2066,36.2136 127.7606,36.1526 L127.9446,39.4736 Z" id="Fill-15" fill="#00AEEF"></path>
            <path d="M149.5325,39.4736 L144.9195,39.4736 L144.9195,26.2506 C144.9195,22.8066 144.3045,21.3916 139.8145,21.3916 C138.4005,21.3916 136.9245,21.6996 135.7555,22.2526 L135.7555,39.4736 L131.1425,39.4736 L131.1425,9.7676 L135.7555,9.7676 L135.7555,18.5626 C137.2935,18.0706 139.1385,17.7636 141.0445,17.7636 C148.6095,17.7636 149.4095,21.2686 149.4095,25.7586 L149.4095,39.4736 L149.5325,39.4736 Z" id="Fill-17" fill="#00AEEF"></path>
            <path d="M172.4729,15.6104 C170.7509,15.3024 168.9059,15.1184 166.9379,15.1184 C159.4339,15.1184 159.3729,19.4854 159.3729,25.3274 C159.3729,31.2934 159.4339,35.5374 166.9379,35.5374 C168.7829,35.5374 170.6889,35.3534 172.4729,35.0454 L172.9649,38.7974 C171.1809,39.2894 168.6599,39.5964 165.9529,39.5964 C156.7279,39.5964 154.4519,35.2304 154.4519,25.3274 C154.4519,15.4254 156.7279,11.0594 165.9529,11.0594 C168.7829,11.0594 171.1809,11.3664 172.9649,11.8594 L172.4729,15.6104 Z" id="Fill-19" fill="#006E9A"></path>
            <path d="M189.2014,28.8335 C187.3564,28.8955 185.1424,28.8955 183.3584,29.3875 C181.1444,29.9405 180.2844,30.5555 180.2844,33.0775 C180.2844,35.7215 181.7604,36.4595 184.5274,36.4595 C185.9414,36.4595 187.6644,36.3985 188.9554,35.7835 C189.0164,34.9225 189.1394,33.9375 189.1394,32.8925 L189.1394,28.8955 L189.2014,28.8955 L189.2014,28.8335 Z M175.8554,33.1385 C175.8554,29.3875 177.5154,27.0495 181.6374,26.4355 C183.9734,26.0655 186.5564,25.9425 189.2014,25.8815 C189.2014,22.9295 187.8484,21.4535 184.6504,21.4535 C182.0674,21.4535 179.4224,21.6995 177.2084,22.0065 L176.8394,18.6245 C179.1764,18.2545 181.9444,17.8245 185.1424,17.8245 C189.8164,17.8245 193.7534,19.0545 193.7534,24.5285 L193.7534,33.9995 C193.7534,35.4145 193.6914,36.6445 193.5684,37.9365 C191.1704,39.2895 188.0334,39.7805 183.9734,39.7805 C178.1314,39.7805 175.8554,37.5055 175.8554,33.1385 L175.8554,33.1385 Z" id="Fill-21" fill="#006E9A"></path>
            <path d="M208.8821,39.4736 C207.8371,39.6576 206.6071,39.7806 205.6851,39.7806 C201.3181,39.7806 199.5341,37.9356 199.5341,33.9376 L199.5341,21.4526 L195.9671,21.4526 L195.9671,18.0706 L199.5341,18.0706 L199.5341,12.7816 L204.1471,11.9816 L204.1471,18.0086 L208.5751,18.0086 L208.5751,21.3916 L204.0241,21.3916 L204.0241,33.5076 C204.0241,35.5366 204.8851,36.2136 206.9141,36.2136 C207.4681,36.2136 208.0221,36.2136 208.5751,36.1526 L208.8821,39.4736 Z" id="Fill-23" fill="#006E9A"></path>
            <path d="M225.55,28.8335 C223.704,28.8955 221.49,28.8955 219.707,29.3875 C217.492,29.9405 216.632,30.5555 216.632,33.0775 C216.632,35.7215 218.108,36.4595 220.875,36.4595 C222.29,36.4595 224.012,36.3985 225.304,35.7835 C225.365,34.9225 225.488,33.9375 225.488,32.8925 L225.488,28.8955 L225.55,28.8955 L225.55,28.8335 Z M212.203,33.1385 C212.203,29.3875 213.864,27.0495 217.985,26.4355 C220.322,26.0655 222.905,25.9425 225.55,25.8815 C225.55,22.9295 224.196,21.4535 220.998,21.4535 C218.415,21.4535 215.771,21.6995 213.557,22.0065 L213.188,18.6245 C215.525,18.2545 218.292,17.8245 221.49,17.8245 C226.165,17.8245 230.101,19.0545 230.101,24.5285 L230.101,33.9995 C230.101,35.4145 230.039,36.6445 229.916,37.9365 C227.518,39.2895 224.381,39.7805 220.322,39.7805 C214.418,39.7805 212.203,37.5055 212.203,33.1385 L212.203,33.1385 Z" id="Fill-25" fill="#006E9A"></path>
            <path d="M232.8684,9.7676 L237.4814,9.7676 L237.4814,33.7536 C237.4814,35.7216 237.9724,37.1366 239.0184,38.6126 L235.0204,40.4576 C233.6064,38.9196 232.8064,36.9516 232.8064,33.9996 L232.8064,9.7676 L232.8684,9.7676 Z" id="Fill-27" fill="#006E9A"></path>
            <polygon id="Fill-29" fill="#006E9A" points="251.3811 32.3394 255.9321 18.0084 260.6071 18.0084 250.6431 47.3454 246.0301 47.3454 249.2901 38.0594 240.6801 18.0084 245.4771 18.0084"></polygon>
            <path d="M272.1077,33.5693 C272.1077,31.1703 269.8937,30.9243 267.8637,30.3093 C264.4197,29.2643 261.1607,28.3413 261.1607,23.7283 C261.1607,19.0543 264.4197,17.7013 268.7247,17.7013 C271.6767,17.7013 273.8297,17.9473 276.2897,18.5623 L275.7967,21.9453 C274.1367,21.6373 272.3537,21.3913 270.5077,21.3913 C268.7867,21.3913 265.6497,21.3913 265.6497,23.6063 C265.6497,25.8813 268.2327,26.2503 270.0157,26.8653 C273.7067,28.0953 276.6587,28.8333 276.6587,33.5073 C276.6587,38.4273 272.9677,39.8423 268.2947,39.8423 C266.0187,39.8423 263.1287,39.5353 260.8527,38.9813 L261.3437,35.5373 C263.0047,35.8443 265.3417,36.1523 267.0637,36.1523 C268.8477,36.0903 272.1077,36.1523 272.1077,33.5693" id="Fill-31" fill="#006E9A"></path>
            <path d="M292.342,39.4736 C291.296,39.6576 290.067,39.7806 289.144,39.7806 C284.777,39.7806 282.993,37.9356 282.993,33.9376 L282.993,21.4526 L279.426,21.4526 L279.426,18.0706 L282.993,18.0706 L282.993,12.7816 L287.606,11.9816 L287.606,18.0086 L292.034,18.0086 L292.034,21.3916 L287.606,21.3916 L287.606,33.5076 C287.606,35.5366 288.467,36.2136 290.496,36.2136 C291.05,36.2136 291.604,36.2136 292.157,36.1526 L292.342,39.4736 Z" id="Fill-33" fill="#006E9A"></path>
            <path d="M294.3118,11.6792 L294.5408,11.6792 C294.8068,11.6792 295.0228,11.5902 295.0228,11.3742 C295.0228,11.1842 294.8828,11.0562 294.5788,11.0562 C294.4518,11.0562 294.3628,11.0692 294.3118,11.0822 L294.3118,11.6792 Z M294.2988,12.8602 L293.8168,12.8602 L293.8168,10.7772 C294.0068,10.7392 294.2738,10.7142 294.6168,10.7142 C295.0098,10.7142 295.1878,10.7772 295.3398,10.8662 C295.4548,10.9552 295.5428,11.1202 295.5428,11.3242 C295.5428,11.5522 295.3658,11.7302 295.1118,11.8062 L295.1118,11.8312 C295.3148,11.9082 295.4288,12.0602 295.4928,12.3402 C295.5558,12.6572 295.5948,12.7842 295.6448,12.8602 L295.1238,12.8602 C295.0608,12.7842 295.0228,12.5932 294.9588,12.3522 C294.9208,12.1232 294.7938,12.0222 294.5278,12.0222 L294.2988,12.0222 L294.2988,12.8602 Z M293.0158,11.7682 C293.0158,12.6952 293.7018,13.4322 294.6418,13.4322 C295.5558,13.4322 296.2298,12.6952 296.2298,11.7812 C296.2298,10.8532 295.5558,10.1042 294.6288,10.1042 C293.7018,10.1042 293.0158,10.8532 293.0158,11.7682 L293.0158,11.7682 Z M296.7628,11.7682 C296.7628,12.9492 295.8358,13.8762 294.6288,13.8762 C293.4358,13.8762 292.4828,12.9492 292.4828,11.7682 C292.4828,10.6122 293.4358,9.6852 294.6288,9.6852 C295.8358,9.6852 296.7628,10.6122 296.7628,11.7682 L296.7628,11.7682 Z" id="Fill-35" fill="#006E9A"></path>
        </g>
    </g>
</svg>