<svg width="254" height="65" viewBox="0 0 254 65" fill="none" xmlns="http://www.w3.org/2000/svg">
<path d="M136.205 26.4732V6.12862H139.763L145.072 20.2156C145.191 20.5517 145.309 20.9175 145.428 21.3129C145.547 21.6886 145.655 22.0544 145.754 22.4102C145.873 22.7463 145.962 23.033 146.021 23.2703H146.199C146.278 22.9935 146.377 22.6673 146.496 22.2916C146.614 21.916 146.723 21.5502 146.822 21.1943C146.94 20.8186 147.049 20.4924 147.148 20.2156L152.457 6.12862H155.986V26.4732H153.643V13.8097C153.643 13.3155 153.653 12.7619 153.673 12.149C153.692 11.5163 153.702 10.9034 153.702 10.3102C153.722 9.7171 153.732 9.26237 153.732 8.94603H153.524C153.445 9.24259 153.336 9.59848 153.198 10.0137C153.079 10.4091 152.951 10.8144 152.812 11.2296C152.694 11.6448 152.575 12.0303 152.457 12.3862L147 26.4732H145.102L139.674 12.3862C139.556 12.0699 139.437 11.7239 139.319 11.3482C139.2 10.9726 139.081 10.5772 138.963 10.162C138.844 9.74676 138.725 9.34145 138.607 8.94603H138.399C138.419 9.34145 138.429 9.83573 138.429 10.4289C138.449 11.022 138.459 11.6151 138.459 12.2083C138.478 12.8014 138.488 13.3352 138.488 13.8097V26.4732H136.205ZM160.75 7.67078V5.03132H162.885V7.67078H160.75ZM160.75 26.4732V10.8737H162.885V26.4732H160.75ZM172.757 26.8291C171.314 26.8291 170.088 26.5325 169.08 25.9394C168.091 25.3463 167.34 24.4467 166.826 23.2406C166.312 22.0346 166.055 20.5122 166.055 18.6735C166.055 16.8545 166.312 15.342 166.826 14.136C167.34 12.9299 168.101 12.0303 169.11 11.4372C170.138 10.8243 171.393 10.5178 172.876 10.5178C173.963 10.5178 174.883 10.6661 175.634 10.9627C176.405 11.2395 177.028 11.6448 177.502 12.1786C177.997 12.7124 178.353 13.355 178.57 14.1063C178.788 14.8576 178.896 15.6979 178.896 16.6271H176.791C176.791 15.6188 176.652 14.8082 176.376 14.1953C176.118 13.5626 175.693 13.098 175.1 12.8014C174.527 12.4851 173.766 12.3269 172.817 12.3269C171.927 12.3269 171.136 12.5246 170.444 12.92C169.772 13.3155 169.238 13.9481 168.843 14.8181C168.467 15.6682 168.279 16.8347 168.279 18.3176V19.0294C168.279 20.4331 168.457 21.5798 168.813 22.4695C169.169 23.3395 169.683 23.982 170.355 24.3972C171.047 24.8124 171.868 25.02 172.817 25.02C173.805 25.02 174.586 24.852 175.16 24.5159C175.753 24.16 176.178 23.6657 176.435 23.033C176.692 22.3806 176.82 21.6095 176.82 20.7198H178.896C178.896 21.5502 178.788 22.341 178.57 23.0923C178.353 23.8239 177.997 24.4664 177.502 25.02C177.028 25.5736 176.395 26.0185 175.604 26.3546C174.833 26.6709 173.884 26.8291 172.757 26.8291ZM182.037 26.4732V10.8737H183.757L183.935 13.4835H184.142C184.281 13.009 184.488 12.5444 184.765 12.0897C185.042 11.6349 185.417 11.2593 185.892 10.9627C186.366 10.6661 186.969 10.5178 187.701 10.5178C187.978 10.5178 188.235 10.5475 188.472 10.6068C188.709 10.6464 188.887 10.6859 189.006 10.7254V12.6828H188.087C187.395 12.6828 186.801 12.8113 186.307 13.0683C185.813 13.3056 185.407 13.6516 185.091 14.1063C184.775 14.5611 184.538 15.085 184.379 15.6781C184.241 16.2515 184.172 16.8545 184.172 17.4872V26.4732H182.037ZM197.328 26.8291C195.825 26.8291 194.54 26.5424 193.473 25.9691C192.425 25.3759 191.624 24.4763 191.07 23.2703C190.537 22.0642 190.27 20.532 190.27 18.6735C190.27 16.7952 190.537 15.2629 191.07 14.0767C191.624 12.8706 192.425 11.9809 193.473 11.4075C194.54 10.8144 195.825 10.5178 197.328 10.5178C198.87 10.5178 200.155 10.8144 201.183 11.4075C202.231 11.9809 203.022 12.8706 203.556 14.0767C204.11 15.2629 204.386 16.7952 204.386 18.6735C204.386 20.532 204.11 22.0642 203.556 23.2703C203.022 24.4763 202.231 25.3759 201.183 25.9691C200.155 26.5424 198.87 26.8291 197.328 26.8291ZM197.328 25.02C198.376 25.02 199.256 24.8124 199.968 24.3972C200.679 23.982 201.223 23.3395 201.599 22.4695C201.974 21.5798 202.162 20.4331 202.162 19.0294V18.3176C202.162 16.9138 201.974 15.777 201.599 14.9071C201.223 14.0173 200.679 13.3649 199.968 12.9497C199.256 12.5345 198.376 12.3269 197.328 12.3269C196.28 12.3269 195.4 12.5345 194.689 12.9497C193.977 13.3649 193.433 14.0173 193.057 14.9071C192.682 15.777 192.494 16.9138 192.494 18.3176V19.0294C192.494 20.4331 192.682 21.5798 193.057 22.4695C193.433 23.3395 193.977 23.982 194.689 24.3972C195.4 24.8124 196.28 25.02 197.328 25.02ZM212.829 26.8291C211.801 26.8291 210.891 26.7204 210.1 26.5029C209.309 26.3052 208.647 26.0086 208.113 25.6132C207.599 25.198 207.204 24.7037 206.927 24.1303C206.67 23.557 206.541 22.8946 206.541 22.1433C206.541 22.0642 206.541 21.9852 206.541 21.9061C206.541 21.8072 206.551 21.7182 206.571 21.6392H208.677C208.657 21.738 208.647 21.827 208.647 21.9061C208.647 21.9654 208.647 22.0247 208.647 22.084C208.667 22.8551 208.855 23.4581 209.211 23.8931C209.566 24.3083 210.071 24.6048 210.723 24.7828C211.375 24.9607 212.127 25.0497 212.977 25.0497C213.708 25.0497 214.361 24.9508 214.934 24.7531C215.527 24.5356 215.992 24.2292 216.328 23.8338C216.684 23.4383 216.862 22.9539 216.862 22.3806C216.862 21.649 216.635 21.0954 216.18 20.7198C215.745 20.3441 215.172 20.0575 214.46 19.8597C213.748 19.6423 213.007 19.4149 212.236 19.1776C211.603 18.9997 210.98 18.8119 210.367 18.6142C209.754 18.3967 209.191 18.1298 208.677 17.8134C208.182 17.4971 207.787 17.0918 207.49 16.5975C207.194 16.1032 207.046 15.4804 207.046 14.7291C207.046 14.0767 207.174 13.4934 207.431 12.9794C207.708 12.4653 208.093 12.0303 208.588 11.6745C209.102 11.2988 209.725 11.0121 210.456 10.8144C211.188 10.6167 212.018 10.5178 212.947 10.5178C213.975 10.5178 214.855 10.6365 215.587 10.8737C216.318 11.111 216.911 11.4372 217.366 11.8524C217.821 12.2478 218.157 12.7026 218.374 13.2166C218.592 13.7109 218.701 14.2348 218.701 14.7884C218.701 14.8675 218.691 14.9565 218.671 15.0553C218.671 15.1542 218.671 15.2432 218.671 15.3222H216.565V14.9367C216.565 14.5215 216.457 14.1162 216.239 13.7208C216.041 13.3254 215.676 12.9892 215.142 12.7124C214.628 12.4356 213.857 12.2972 212.829 12.2972C212.216 12.2972 211.682 12.3566 211.227 12.4752C210.792 12.574 210.417 12.7223 210.1 12.92C209.804 13.1178 209.576 13.3649 209.418 13.6615C209.28 13.9383 209.211 14.2645 209.211 14.6401C209.211 15.2135 209.388 15.6584 209.744 15.9747C210.12 16.2713 210.604 16.5184 211.198 16.7161C211.791 16.8941 212.423 17.0918 213.096 17.3093C213.768 17.507 214.45 17.7146 215.142 17.932C215.854 18.1495 216.506 18.4164 217.099 18.7328C217.692 19.0491 218.167 19.4742 218.523 20.008C218.879 20.5221 219.057 21.2042 219.057 22.0544C219.057 22.8452 218.898 23.5471 218.582 24.16C218.266 24.7531 217.831 25.2474 217.277 25.6428C216.724 26.0383 216.061 26.3348 215.29 26.5325C214.539 26.7302 213.718 26.8291 212.829 26.8291ZM228.491 26.8291C226.988 26.8291 225.703 26.5424 224.636 25.9691C223.588 25.3759 222.787 24.4763 222.233 23.2703C221.7 22.0642 221.433 20.532 221.433 18.6735C221.433 16.7952 221.7 15.2629 222.233 14.0767C222.787 12.8706 223.588 11.9809 224.636 11.4075C225.703 10.8144 226.988 10.5178 228.491 10.5178C230.033 10.5178 231.318 10.8144 232.346 11.4075C233.394 11.9809 234.185 12.8706 234.719 14.0767C235.272 15.2629 235.549 16.7952 235.549 18.6735C235.549 20.532 235.272 22.0642 234.719 23.2703C234.185 24.4763 233.394 25.3759 232.346 25.9691C231.318 26.5424 230.033 26.8291 228.491 26.8291ZM228.491 25.02C229.539 25.02 230.419 24.8124 231.13 24.3972C231.842 23.982 232.386 23.3395 232.762 22.4695C233.137 21.5798 233.325 20.4331 233.325 19.0294V18.3176C233.325 16.9138 233.137 15.777 232.762 14.9071C232.386 14.0173 231.842 13.3649 231.13 12.9497C230.419 12.5345 229.539 12.3269 228.491 12.3269C227.443 12.3269 226.563 12.5345 225.851 12.9497C225.14 13.3649 224.596 14.0173 224.22 14.9071C223.845 15.777 223.657 16.9138 223.657 18.3176V19.0294C223.657 20.4331 223.845 21.5798 224.22 22.4695C224.596 23.3395 225.14 23.982 225.851 24.3972C226.563 24.8124 227.443 25.02 228.491 25.02ZM239.365 26.4732V12.6828H237.052V10.8737H239.365V8.14529C239.365 7.5917 239.444 7.05787 239.602 6.54382C239.78 6.02977 240.097 5.61457 240.551 5.29823C241.006 4.96212 241.649 4.79407 242.479 4.79407C242.736 4.79407 242.993 4.80395 243.25 4.82372C243.507 4.8435 243.744 4.87315 243.962 4.91269C244.199 4.95224 244.407 5.01155 244.585 5.09064V6.60314H243.013C242.499 6.60314 242.113 6.73165 241.856 6.98867C241.619 7.2457 241.5 7.62135 241.5 8.11563V10.8737H244.585V12.6828H241.5V26.4732H239.365ZM250.177 26.7994C249.466 26.7994 248.892 26.6709 248.457 26.4139C248.042 26.1569 247.745 25.801 247.567 25.3463C247.409 24.8915 247.33 24.3874 247.33 23.8338V12.6828H245.225V10.8737H247.33L247.745 6.54382H249.466V10.8737H252.461V12.6828H249.466V23.4482C249.466 23.982 249.535 24.3775 249.673 24.6345C249.831 24.8915 250.167 25.02 250.681 25.02H252.461V26.3843C252.263 26.4633 252.026 26.5325 251.749 26.5918C251.492 26.6709 251.225 26.7204 250.948 26.7401C250.672 26.7797 250.415 26.7994 250.177 26.7994ZM133.743 58.4732L141.839 38.1286H144.983L153.109 58.4732H150.588L148.453 53.1053H138.251L136.145 58.4732H133.743ZM139.052 51.0887H147.652L144.983 44.2972C144.924 44.1391 144.835 43.9018 144.716 43.5855C144.598 43.2691 144.459 42.9133 144.301 42.5178C144.163 42.1026 144.014 41.6874 143.856 41.2723C143.718 40.8571 143.579 40.4814 143.441 40.1453H143.233C143.115 40.5209 142.957 40.9658 142.759 41.4798C142.581 41.9939 142.393 42.508 142.195 43.022C142.017 43.5163 141.859 43.9414 141.721 44.2972L139.052 51.0887ZM154.353 58.4732V57.198L163.398 44.6828H155.035V42.8737H166.423V44.0897L157.348 56.6642H166.957V58.4732H154.353ZM174.822 58.8291C173.339 58.8291 172.143 58.4534 171.233 57.7021C170.324 56.9508 169.869 55.636 169.869 53.7578V42.8737H172.004V53.5502C172.004 54.2422 172.093 54.8057 172.271 55.2406C172.449 55.6756 172.696 56.0216 173.013 56.2786C173.329 56.5159 173.695 56.6839 174.11 56.7828C174.545 56.8816 175.01 56.9311 175.504 56.9311C176.295 56.9311 177.036 56.7432 177.728 56.3676C178.44 55.9722 179.013 55.4186 179.448 54.7068C179.883 53.9753 180.101 53.1053 180.101 52.097V42.8737H182.236V58.4732H180.575L180.338 56.0117H180.13C179.695 56.7235 179.201 57.2869 178.648 57.7021C178.114 58.0976 177.521 58.3843 176.868 58.5622C176.235 58.7401 175.553 58.8291 174.822 58.8291ZM186.41 58.4732V42.8737H188.13L188.308 45.4835H188.515C188.654 45.009 188.861 44.5444 189.138 44.0897C189.415 43.6349 189.791 43.2593 190.265 42.9627C190.74 42.6661 191.343 42.5178 192.074 42.5178C192.351 42.5178 192.608 42.5475 192.845 42.6068C193.083 42.6464 193.26 42.6859 193.379 42.7254V44.6828H192.46C191.768 44.6828 191.175 44.8113 190.68 45.0683C190.186 45.3056 189.781 45.6516 189.464 46.1063C189.148 46.5611 188.911 47.085 188.753 47.6781C188.614 48.2515 188.545 48.8545 188.545 49.4872V58.4732H186.41ZM201.553 58.8291C200.07 58.8291 198.815 58.5424 197.787 57.9691C196.758 57.3759 195.978 56.4763 195.444 55.2703C194.91 54.0642 194.643 52.532 194.643 50.6735C194.643 48.7952 194.91 47.2629 195.444 46.0767C195.978 44.8706 196.768 43.9809 197.816 43.4075C198.864 42.8144 200.169 42.5178 201.731 42.5178C203.174 42.5178 204.38 42.8045 205.349 43.3779C206.338 43.9513 207.079 44.7816 207.573 45.8691C208.087 46.9565 208.344 48.291 208.344 49.8727V51.237H196.867C196.867 52.6012 197.055 53.7182 197.431 54.5882C197.806 55.4581 198.34 56.0908 199.032 56.4862C199.744 56.8619 200.614 57.0497 201.642 57.0497C202.393 57.0497 203.046 56.9508 203.599 56.7531C204.173 56.5554 204.637 56.2885 204.993 55.9524C205.369 55.5965 205.656 55.1813 205.853 54.7068C206.051 54.2323 206.15 53.738 206.15 53.224H208.226C208.226 53.995 208.078 54.7266 207.781 55.4186C207.504 56.0908 207.089 56.6839 206.535 57.198C206.002 57.712 205.319 58.1173 204.489 58.4139C203.659 58.6907 202.68 58.8291 201.553 58.8291ZM196.867 49.5465H206.12C206.12 48.5579 206.002 47.7374 205.764 47.085C205.547 46.4128 205.24 45.8789 204.845 45.4835C204.45 45.0683 203.975 44.7718 203.421 44.5938C202.888 44.4159 202.285 44.3269 201.612 44.3269C200.644 44.3269 199.813 44.5147 199.121 44.8904C198.429 45.2463 197.895 45.8097 197.52 46.5808C197.164 47.3519 196.946 48.3405 196.867 49.5465Z" fill="black"/>
<g clip-path="url(#clip0_274_228)">
<path d="M26.2236 8.91417H2.53711V32.038H26.2236V8.91417Z" fill="#F25022"/>
<path d="M52.4052 8.91417H28.7188V32.038H52.4052V8.91417Z" fill="#7FBA00"/>
<path d="M26.2236 34.4685H2.53711V57.5924H26.2236V34.4685Z" fill="#00A4EF"/>
<path d="M52.4071 34.4685H28.7207V57.5924H52.4071V34.4685Z" fill="#FFB900"/>
</g>
<g clip-path="url(#clip1_274_228)">
<path d="M110.065 29.7201C109.989 27.0879 108.979 24.5687 107.214 22.614C105.449 20.6594 103.046 19.397 100.435 19.0531C100.274 15.3641 98.6655 11.8873 95.9593 9.37518C93.2531 6.86305 89.6664 5.51769 85.9756 5.6303C82.9979 5.58148 80.0779 6.45519 77.6164 8.13159C75.1548 9.80799 73.2723 12.2049 72.2269 14.9936C69.0808 15.3813 66.1773 16.8821 64.0415 19.2244C61.9056 21.5667 60.6785 24.5961 60.582 27.7645C60.7132 31.3278 62.2538 34.6933 64.8652 37.1213C67.4766 39.5493 70.9451 40.8412 74.5085 40.7132H98.2132C98.4103 40.7297 98.6086 40.7297 98.8058 40.7132C101.744 40.7065 104.564 39.5544 106.667 37.5017C108.769 35.449 109.988 32.6575 110.065 29.7201Z" fill="url(#paint0_linear_274_228)"/>
<path d="M85.4721 36.7137C78.2126 36.7137 72.3457 34.8469 72.3457 32.5357V54.7885C72.3457 57.07 78.2719 58.9368 85.2944 58.9664H85.4721C92.7021 58.9664 98.569 57.0997 98.569 54.7885V32.5357C98.569 34.8469 92.7021 36.7137 85.4721 36.7137Z" fill="url(#paint1_linear_274_228)"/>
<path d="M98.569 32.5348C98.569 34.846 92.6428 36.7127 85.4721 36.7127C78.3015 36.7127 72.3457 34.846 72.3457 32.5348C72.3457 30.2236 78.2719 28.3568 85.4721 28.3568C92.6724 28.3568 98.569 30.2236 98.569 32.5348Z" fill="#E8E8E8"/>
<path d="M95.5177 32.2984C95.5177 33.7503 91.0139 34.9651 85.4729 34.9651C79.9319 34.9651 75.3984 33.7503 75.3984 32.2984C75.3984 30.8465 79.9023 29.6316 85.4729 29.6316C91.0435 29.6316 95.5177 30.8168 95.5177 32.2984Z" fill="#50E6FF"/>
<path d="M85.4726 32.8315C82.7804 32.7687 80.0939 33.1083 77.502 33.8389C80.0912 34.5853 82.7786 34.935 85.4726 34.876C88.1664 34.9309 90.8533 34.5813 93.4433 33.8389C90.8505 33.1126 88.1646 32.7731 85.4726 32.8315Z" fill="#32BEDD"/>
<path d="M77.2917 20.4461L84.9661 12.6829C85.0489 12.5977 85.148 12.5301 85.2574 12.4839C85.3668 12.4377 85.4844 12.4139 85.6032 12.4139C85.7219 12.4139 85.8395 12.4377 85.9489 12.4839C86.0583 12.5301 86.1574 12.5977 86.2402 12.6829L93.9146 20.4461C93.9804 20.499 94.0271 20.5721 94.0473 20.6541C94.0675 20.7361 94.0602 20.8225 94.0265 20.9C93.9929 20.9774 93.9347 21.0417 93.8609 21.0828C93.7871 21.1239 93.7019 21.1397 93.6183 21.1276H88.907C88.797 21.1276 88.6915 21.1713 88.6137 21.2491C88.5359 21.3269 88.4922 21.4324 88.4922 21.5425V31.0539C88.4968 31.0979 88.4916 31.1423 88.4769 31.184C88.4621 31.2257 88.4383 31.2635 88.407 31.2948C88.3758 31.326 88.3379 31.3499 88.2963 31.3646C88.2546 31.3793 88.2102 31.3846 88.1662 31.3799H83.0105C82.924 31.3799 82.8411 31.3455 82.78 31.2844C82.7189 31.2233 82.6845 31.1404 82.6845 31.0539V21.4536C82.6932 21.3559 82.6643 21.2587 82.6037 21.1816C82.5432 21.1045 82.4555 21.0534 82.3586 21.0387H77.5584C77.4943 21.0294 77.4335 21.0041 77.3818 20.9651C77.3301 20.9261 77.289 20.8747 77.2624 20.8156C77.2359 20.7565 77.2246 20.6917 77.2297 20.6271C77.2348 20.5625 77.2562 20.5003 77.2917 20.4461Z" fill="#F2F2F2"/>
</g>
<defs>
<linearGradient id="paint0_linear_274_228" x1="85.3237" y1="40.7132" x2="85.3237" y2="5.63031" gradientUnits="userSpaceOnUse">
<stop stop-color="#0078D4"/>
<stop offset="0.16" stop-color="#1380DA"/>
<stop offset="0.53" stop-color="#3C91E5"/>
<stop offset="0.82" stop-color="#559CEC"/>
<stop offset="1" stop-color="#5EA0EF"/>
</linearGradient>
<linearGradient id="paint1_linear_274_228" x1="72.3457" y1="45.7511" x2="98.569" y2="45.7511" gradientUnits="userSpaceOnUse">
<stop stop-color="#32BEDD"/>
<stop offset="0.06" stop-color="#37C5E3"/>
<stop offset="0.3" stop-color="#49DDF7"/>
<stop offset="0.45" stop-color="#50E6FF"/>
<stop offset="0.55" stop-color="#50E6FF"/>
<stop offset="0.7" stop-color="#49DDF7"/>
<stop offset="0.94" stop-color="#37C5E3"/>
<stop offset="1" stop-color="#32BEDD"/>
</linearGradient>
<clipPath id="clip0_274_228">
<rect width="52.8021" height="50.7712" fill="white" transform="translate(0.695312 6.92033)"/>
</clipPath>
<clipPath id="clip1_274_228">
<rect width="53.3354" height="53.3354" fill="white" transform="translate(58.6562 5.63089)"/>
</clipPath>
</defs>
</svg>
