<svg width="143" height="32" viewBox="0 0 143 32" fill="none" xmlns="http://www.w3.org/2000/svg">
<g clip-path="url(#clip0_128_102)">
<path d="M58.5356 30.8453H57.6618C57.5804 30.8478 57.5005 30.8234 57.4346 30.7759C57.3744 30.7304 57.3264 30.6709 57.2948 30.6026L56.8579 29.4066H54.4463L54.0094 30.6026C53.9791 30.6668 53.9342 30.7231 53.8783 30.7673C53.8147 30.8198 53.7339 30.8475 53.6511 30.8453H52.7773L55.0929 25.0127H56.2113L58.5356 30.8453ZM56.6045 28.644L55.888 26.7027C55.888 26.616 55.8181 26.512 55.7744 26.3907L55.6608 26.0093C55.6259 26.148 55.5909 26.278 55.556 26.3993C55.556 26.512 55.4773 26.6247 55.4424 26.7113L54.7172 28.67L56.6045 28.644Z" fill="#808080"/>
<path d="M69.8517 25.0391V30.8456H69.2925C69.2171 30.8506 69.1417 30.8356 69.074 30.8023C69.0086 30.7695 68.9517 30.722 68.908 30.6636L65.8323 26.7724C65.8323 26.9457 65.8323 27.1104 65.8323 27.2664V30.8456H64.8711V25.0391H65.5614H65.6488L65.7274 25.0911C65.7578 25.1192 65.7843 25.1513 65.806 25.1864L68.9167 29.1123C68.9167 29.017 68.9167 28.9217 68.9167 28.8263C68.9167 28.731 68.9167 28.653 68.9167 28.575V25.0391H69.8517Z" fill="#808080"/>
<path d="M81.9526 30.8456H81.0789C80.9977 30.8463 80.9184 30.8221 80.8517 30.7763C80.7916 30.7327 80.746 30.6724 80.7206 30.603L80.275 29.407H77.8633L77.4352 30.629C77.4079 30.6949 77.3625 30.752 77.3041 30.7936C77.2404 30.8461 77.1597 30.8739 77.0769 30.8716H76.2031L78.5187 25.0391H79.6371L81.9526 30.8456ZM80.0565 28.6703L79.34 26.729C79.2998 26.6268 79.2648 26.5227 79.2352 26.417C79.2352 26.3044 79.1565 26.1744 79.1128 26.0357C79.0779 26.1744 79.0429 26.3044 79.008 26.4257C79.008 26.5384 78.9293 26.651 78.8944 26.7377L78.1866 28.6703H80.0565Z" fill="#808080"/>
<path d="M91.7572 29.979V30.8456H88.3145V25.0391H89.4067V29.979H91.7572Z" fill="#808080"/>
<path d="M100.04 28.6093V30.8452H98.9474V28.6093L96.8066 25.0386H97.7678C97.8084 25.0346 97.8494 25.0386 97.8885 25.0505C97.9275 25.0624 97.9637 25.082 97.995 25.108C98.0552 25.1535 98.1032 25.2131 98.1348 25.2813L99.2096 27.2313C99.2707 27.3439 99.3319 27.4566 99.3756 27.5519C99.4193 27.6473 99.463 27.7599 99.5066 27.8639C99.5398 27.7571 99.5807 27.6529 99.629 27.5519C99.629 27.4566 99.7251 27.3439 99.7863 27.2313L100.852 25.2813C100.886 25.2171 100.934 25.1609 100.992 25.1166C101.055 25.0626 101.136 25.0347 101.219 25.0386H102.189L100.04 28.6093Z" fill="#808080"/>
<path d="M112.649 25.9317H110.901V30.8456H109.765V25.9057H108.018V25.0391H112.666L112.649 25.9317Z" fill="#808080"/>
<path d="M120.251 30.8456H119.15V25.0391H120.251V30.8456Z" fill="#808080"/>
<path d="M131.367 29.4933C131.429 29.4954 131.488 29.5201 131.533 29.5626L131.961 30.0306C131.728 30.3223 131.429 30.5541 131.087 30.7066C130.689 30.872 130.26 30.9518 129.829 30.9406C129.427 30.9462 129.028 30.8695 128.658 30.7153C128.328 30.5697 128.031 30.3605 127.784 30.0999C127.534 29.8254 127.34 29.5043 127.216 29.1553C127.083 28.7676 127.018 28.3601 127.024 27.9506C127.02 27.5398 127.091 27.1318 127.233 26.746C127.363 26.3976 127.565 26.0797 127.825 25.8127C128.085 25.5456 128.398 25.3351 128.745 25.1947C129.119 25.0427 129.52 24.9661 129.925 24.9693C130.291 24.9569 130.657 25.0181 130.999 25.1491C131.342 25.2802 131.654 25.4784 131.917 25.732L131.55 26.2347C131.531 26.2695 131.504 26.2992 131.471 26.3213C131.426 26.3353 131.377 26.3353 131.332 26.3213C131.289 26.3331 131.243 26.3331 131.2 26.3213L131.061 26.2347L130.877 26.122L130.641 26.018C130.542 25.9817 130.439 25.9527 130.335 25.9313C130.199 25.917 130.061 25.917 129.925 25.9313C129.676 25.9258 129.429 25.9731 129.2 26.07C128.984 26.1615 128.793 26.3008 128.64 26.4773C128.476 26.6646 128.351 26.8827 128.273 27.1186C128.182 27.3984 128.138 27.6912 128.142 27.9853C128.139 28.28 128.186 28.573 128.282 28.852C128.366 29.0869 128.494 29.3043 128.658 29.4933C128.815 29.6657 129.009 29.8018 129.226 29.8919C129.447 29.9853 129.685 30.0325 129.925 30.0306C130.062 30.0398 130.199 30.0398 130.335 30.0306C130.448 30.0148 130.559 29.9887 130.667 29.9526C130.77 29.9206 130.867 29.8739 130.956 29.8139C131.052 29.7561 131.143 29.6893 131.227 29.6146L131.314 29.5539C131.326 29.5298 131.344 29.5089 131.367 29.4933Z" fill="#808080"/>
<path d="M141.589 26.0968C141.569 26.1453 141.536 26.1872 141.493 26.2182C141.452 26.2455 141.403 26.2605 141.353 26.2615C141.288 26.2561 141.225 26.2353 141.17 26.2008L140.934 26.0622C140.83 26.0046 140.722 25.9554 140.611 25.9148C140.465 25.8747 140.316 25.8543 140.165 25.8542C140.031 25.8503 139.898 25.8709 139.772 25.9148C139.667 25.9457 139.569 25.9956 139.483 26.0622C139.406 26.1244 139.346 26.2049 139.309 26.2962C139.273 26.3903 139.255 26.4902 139.256 26.5908C139.251 26.7162 139.291 26.8393 139.37 26.9375C139.459 27.031 139.562 27.1099 139.676 27.1715C139.817 27.2389 139.963 27.2968 140.113 27.3448L140.611 27.5095C140.784 27.5631 140.954 27.6298 141.117 27.7088C141.273 27.7838 141.417 27.88 141.546 27.9948C141.679 28.1166 141.786 28.264 141.86 28.4281C141.938 28.624 141.976 28.833 141.974 29.0435C141.977 29.2986 141.93 29.5519 141.834 29.7888C141.746 30.013 141.612 30.2167 141.441 30.3868C141.254 30.5636 141.035 30.7021 140.794 30.7941C140.514 30.8959 140.218 30.9459 139.92 30.9414C139.735 30.9431 139.55 30.9228 139.37 30.8808C139.19 30.8471 139.014 30.7948 138.846 30.7248C138.68 30.6613 138.522 30.5799 138.374 30.4821C138.228 30.3975 138.096 30.2924 137.98 30.1701L138.304 29.6501C138.332 29.612 138.368 29.5796 138.409 29.5548C138.454 29.5418 138.503 29.5418 138.548 29.5548C138.628 29.5584 138.704 29.5856 138.767 29.6328C138.856 29.6993 138.949 29.7601 139.046 29.8148C139.184 29.882 139.327 29.9371 139.475 29.9794C139.643 30.036 139.821 30.0625 139.999 30.0574C140.259 30.0733 140.516 29.9965 140.724 29.8408C140.81 29.76 140.878 29.6616 140.922 29.5523C140.965 29.443 140.984 29.3255 140.978 29.2081C140.986 29.0745 140.945 28.9423 140.864 28.8355C140.781 28.7317 140.676 28.6461 140.558 28.5841C140.417 28.5174 140.271 28.4624 140.121 28.4195L139.623 28.2721C139.453 28.217 139.286 28.1504 139.125 28.0728C138.963 28.0013 138.815 27.9015 138.688 27.7781C138.556 27.6505 138.452 27.497 138.382 27.3275C138.225 26.9112 138.225 26.4524 138.382 26.0362C138.467 25.8324 138.595 25.6491 138.758 25.4988C138.931 25.335 139.136 25.2082 139.361 25.1262C139.623 25.0252 139.902 24.9751 140.182 24.9789C140.51 24.9736 140.836 25.0295 141.144 25.1435C141.422 25.2413 141.678 25.3947 141.895 25.5942L141.589 26.0968Z" fill="#808080"/>
<path d="M56.6929 5.23589H52.7871V20.1337H54.0017V14.1971H56.6929C57.4523 14.2085 58.2083 14.0943 58.9298 13.8591C59.5463 13.6651 60.1169 13.3497 60.6075 12.9318C61.0793 12.5443 61.4559 12.0553 61.7085 11.5018C61.9611 10.9311 62.0891 10.3138 62.0842 9.69049C62.1192 9.07625 62.0158 8.46199 61.7815 7.89234C61.5472 7.32269 61.188 6.81195 60.7298 6.3972C59.5696 5.5395 58.1358 5.12702 56.6929 5.23589ZM60.8347 9.69049C60.8375 10.1696 60.7424 10.6442 60.5551 11.0858C60.3676 11.5067 60.0904 11.8822 59.7424 12.1864C59.3655 12.5154 58.9257 12.7659 58.4492 12.9231C57.8867 13.1122 57.2955 13.2031 56.7017 13.1918H54.0017V6.25854H56.6929C57.7985 6.16663 58.9002 6.47445 59.7949 7.12519C60.1462 7.45176 60.4214 7.85058 60.601 8.29371C60.7806 8.73684 60.8604 9.21357 60.8347 9.69049Z" fill="#808080"/>
<path d="M73.9404 5.33142C73.8667 5.38636 73.8069 5.45757 73.7657 5.53941L69.5278 12.308C69.4305 12.4613 69.3429 12.6205 69.2657 12.7846C69.2196 12.8747 69.1788 12.9673 69.1433 13.062C69.1079 12.9673 69.067 12.8747 69.021 12.7846C68.9451 12.6214 68.8605 12.4623 68.7676 12.308L64.4773 5.53941C64.4329 5.4547 64.3703 5.38073 64.2938 5.32275C64.2112 5.26719 64.114 5.23704 64.0142 5.23608H62.9395L68.4967 13.9979V20.1339H69.7288V13.9979L75.2161 5.33142L75.2861 5.21875H74.2026C74.1052 5.22737 74.0133 5.26688 73.9404 5.33142Z" fill="#808080"/>
<path d="M82.8177 13.3133C83.3654 13.2473 83.9009 13.1044 84.4079 12.8886C84.9058 12.6832 85.3618 12.3895 85.7536 12.022C86.1297 11.6712 86.4274 11.2461 86.6274 10.774C86.8341 10.2736 86.938 9.73741 86.9332 9.19669C86.9652 8.63859 86.8639 8.08087 86.6377 7.56887C86.4115 7.05687 86.0666 6.60503 85.6312 6.25007C84.4789 5.49936 83.1093 5.14605 81.7342 5.24475H77.8633V20.1339H79.0778V13.4606H80.9303C81.1377 13.4533 81.3448 13.4826 81.5419 13.5473C81.6814 13.6225 81.8034 13.7258 81.9002 13.8506L86.6536 19.8392C86.7249 19.9309 86.814 20.0075 86.9157 20.0645C87.0153 20.1158 87.1269 20.1398 87.239 20.1339H88.3312L83.0885 13.6426C83.011 13.5231 82.9201 13.4126 82.8177 13.3133ZM85.439 10.6093C85.2541 11.0096 84.9791 11.3624 84.6351 11.6407C84.2449 11.9365 83.8037 12.1596 83.3332 12.2993C82.7641 12.455 82.1759 12.5309 81.5856 12.5246H79.0778V6.22407H81.6992C82.7493 6.15711 83.7943 6.41773 84.6876 6.96939C85.0318 7.23793 85.3042 7.58622 85.481 7.98365C85.6577 8.38109 85.7333 8.81549 85.7011 9.24869C85.7159 9.715 85.6294 10.179 85.4477 10.6093H85.439Z" fill="#808080"/>
<path d="M95.6185 5.23633L89.502 20.0388V20.1341H90.4282C90.5348 20.1341 90.6388 20.1008 90.7253 20.0388C90.8009 19.9807 90.8585 19.9026 90.8913 19.8134L92.6388 15.5668H99.8388L101.586 19.8134C101.626 19.8986 101.683 19.9751 101.752 20.0388C101.833 20.106 101.936 20.1401 102.041 20.1341H102.984L96.868 5.23633H95.6185ZM96.1253 6.8743L96.2039 6.63164L96.2825 6.8743C96.325 7.01251 96.3746 7.14847 96.4311 7.28163L99.4282 14.6309H92.9796L95.9767 7.2903C96.0204 7.17763 96.0641 7.04763 96.1253 6.8743Z" fill="#808080"/>
<path d="M118.503 5.27945C118.411 5.31834 118.337 5.38922 118.294 5.47878L112.448 15.7226C112.396 15.8266 112.343 15.9306 112.299 16.0346C112.275 16.0851 112.255 16.1372 112.238 16.1906C112.168 16.026 112.098 15.8786 112.02 15.7313L106.008 5.47011C105.962 5.3827 105.888 5.31268 105.798 5.27078C105.711 5.26 105.623 5.26 105.536 5.27078H104.732V20.1339H105.807V7.22075L111.653 17.2653C111.697 17.3564 111.767 17.4333 111.853 17.4869C111.94 17.5406 112.04 17.5689 112.142 17.5686H112.308C112.409 17.5694 112.508 17.5411 112.594 17.4873C112.679 17.4335 112.747 17.3564 112.789 17.2653L118.503 7.23809C118.503 7.32475 118.503 7.41142 118.503 7.48942V20.1339H119.596V5.23612H118.774C118.682 5.2317 118.59 5.24646 118.503 5.27945Z" fill="#808080"/>
<path d="M125.363 5.23633H124.131V20.1341H125.363V5.23633Z" fill="#808080"/>
<path d="M141.896 9.59585C141.575 8.72074 141.075 7.92103 140.428 7.24722C139.79 6.59492 139.018 6.08651 138.165 5.75657C137.233 5.40506 136.243 5.22872 135.246 5.23658H129.75V20.1344H135.246C136.243 20.1458 137.232 19.9724 138.165 19.623C139.016 19.2898 139.788 18.7818 140.428 18.1324C141.074 17.4572 141.573 16.6579 141.896 15.7838C142.251 14.788 142.426 13.7375 142.411 12.6811C142.425 11.6305 142.251 10.5858 141.896 9.59585ZM141.153 12.6465C141.17 13.5769 141.025 14.5033 140.725 15.3851C140.473 16.1342 140.065 16.8222 139.528 17.4044C139.016 17.9759 138.38 18.4236 137.666 18.713C136.895 19.01 136.073 19.1571 135.246 19.1464H130.982V6.25056H135.246C136.073 6.24137 136.895 6.38842 137.666 6.68389C138.373 6.96037 139.009 7.38966 139.528 7.94054C140.067 8.52128 140.475 9.20978 140.725 9.95984C141.021 10.8246 141.166 11.7333 141.153 12.6465Z" fill="#808080"/>
<path d="M25.253 12.4813L32.3569 21.1479L27.586 23.9645V28.5577L39.2336 22.4478L20.5957 0.798828V31.9984L25.253 29.7017V12.4813Z" fill="#0FAFDB"/>
<path d="M14.7677 25.1085L7.66381 21.1479L12.4347 15.9219V9.03204L0.787109 22.4478L19.425 31.9984V0.798828L14.7677 5.59142V25.1085Z" fill="#808080"/>
</g>
<defs>
<clipPath id="clip0_128_102">
<rect width="141.632" height="31.1995" fill="white" transform="translate(0.787109 0.798828)"/>
</clipPath>
</defs>
</svg>
