<svg width="336" height="214" viewBox="0 0 336 214" fill="none" xmlns="http://www.w3.org/2000/svg">
<g clip-path="url(#clip0_322_838)">
<rect width="334.828" height="213.72" transform="translate(0.585938 0.139648)" fill="white"/>
<g filter="url(#filter0_d_322_838)">
<rect x="115.994" y="5.12695" width="101.161" height="174.538" fill="white"/>
</g>
<rect x="120.193" y="47.0771" width="2.987" height="88.1036" fill="#373737"/>
<rect x="120.193" y="135.182" width="92.7625" height="2.53203" fill="#373737"/>
<rect x="123.18" y="67.9551" width="79.0763" height="8.54879" fill="#6BB7B7"/>
<rect x="123.18" y="82.2031" width="59.3072" height="8.54879" fill="#FFB185"/>
<rect x="123.18" y="96.4502" width="69.6215" height="8.54879" fill="#FFB185"/>
<rect x="123.18" y="110.699" width="49.8525" height="8.54879" fill="#FFB185"/>
<rect x="123.18" y="124.947" width="33.5215" height="8.54879" fill="#FFB185"/>
<g filter="url(#filter1_d_322_838)">
<rect x="224.279" y="27.21" width="101.161" height="174.538" fill="white"/>
</g>
<rect x="228.208" y="125.762" width="93.3024" height="4.51765" fill="#047CA3"/>
<rect x="228.375" y="131.456" width="92.9681" height="44.1774" fill="#F3F3F3" stroke="#6F6F6F" stroke-width="0.3562"/>
<rect x="239.396" y="131.634" width="0.451765" height="43.8212" fill="#252525"/>
<rect x="249.335" y="131.634" width="0.451765" height="43.8212" fill="#252525"/>
<rect x="259.273" y="131.634" width="0.451765" height="43.8212" fill="#252525"/>
<rect x="269.212" y="131.634" width="0.451765" height="43.8212" fill="#252525"/>
<rect x="279.151" y="131.634" width="0.451765" height="43.8212" fill="#252525"/>
<rect x="289.09" y="131.634" width="0.451765" height="43.8212" fill="#252525"/>
<rect x="299.029" y="131.634" width="0.451765" height="43.8212" fill="#252525"/>
<rect x="308.968" y="131.634" width="0.451765" height="43.8212" fill="#252525"/>
<rect x="228.553" y="134.796" width="92.6119" height="0.451765" fill="#252525"/>
<rect x="228.454" y="138.861" width="92.6119" height="0.451765" fill="#252525"/>
<rect x="228.553" y="142.928" width="92.6119" height="0.451765" fill="#252525"/>
<rect x="228.553" y="146.993" width="92.6119" height="0.451765" fill="#252525"/>
<rect x="228.553" y="151.06" width="92.6119" height="0.451765" fill="#252525"/>
<rect x="228.553" y="155.125" width="92.6119" height="0.451765" fill="#252525"/>
<rect x="228.553" y="159.191" width="92.6119" height="0.451765" fill="#252525"/>
<rect x="228.553" y="163.257" width="92.6119" height="0.451765" fill="#252525"/>
<rect x="228.553" y="167.322" width="92.6119" height="0.451765" fill="#252525"/>
<rect x="228.553" y="171.389" width="92.6119" height="0.451765" fill="#252525"/>
<rect x="259.863" y="155.794" width="9.20648" height="3.18151" fill="#FB9A9A"/>
<rect x="289.678" y="167.967" width="9.20648" height="3.18151" fill="#FB9A9A"/>
<rect x="279.736" y="155.794" width="9.21812" height="3.184" fill="#9CDCAE"/>
<rect x="239.97" y="155.794" width="9.21812" height="3.184" fill="#9CDCAE"/>
<rect x="279.736" y="143.584" width="9.21812" height="3.184" fill="#9CDCAE"/>
<rect x="228.208" y="53.5059" width="93.3024" height="4.51765" fill="#047CA3"/>
<rect x="228.375" y="59.1998" width="92.9681" height="44.1774" fill="#F3F3F3" stroke="#6F6F6F" stroke-width="0.3562"/>
<rect x="239.396" y="59.3779" width="0.451765" height="43.8212" fill="#252525"/>
<rect x="249.335" y="59.3779" width="0.451765" height="43.8212" fill="#252525"/>
<rect x="259.273" y="59.3779" width="0.451765" height="43.8212" fill="#252525"/>
<rect x="269.212" y="59.3779" width="0.451765" height="43.8212" fill="#252525"/>
<rect x="279.151" y="59.3779" width="0.451765" height="43.8212" fill="#252525"/>
<rect x="289.09" y="59.3779" width="0.451765" height="43.8212" fill="#252525"/>
<rect x="299.029" y="59.3779" width="0.451765" height="43.8212" fill="#252525"/>
<rect x="308.968" y="59.3779" width="0.451765" height="43.8212" fill="#252525"/>
<rect x="228.553" y="62.542" width="92.6119" height="0.451765" fill="#252525"/>
<rect x="228.454" y="66.6074" width="92.6119" height="0.451765" fill="#252525"/>
<rect x="228.553" y="70.6738" width="92.6119" height="0.451765" fill="#252525"/>
<rect x="228.553" y="74.7393" width="92.6119" height="0.451765" fill="#252525"/>
<rect x="228.553" y="78.8057" width="92.6119" height="0.451765" fill="#252525"/>
<rect x="228.553" y="82.8711" width="92.6119" height="0.451765" fill="#252525"/>
<rect x="228.553" y="86.9375" width="92.6119" height="0.451765" fill="#252525"/>
<rect x="228.553" y="91.0029" width="92.6119" height="0.451765" fill="#252525"/>
<rect x="228.553" y="95.0684" width="92.6119" height="0.451765" fill="#252525"/>
<rect x="228.553" y="99.1348" width="92.6119" height="0.451765" fill="#252525"/>
<rect x="228.572" y="71.2988" width="92.5432" height="3.24121" fill="#7BCDFC" fill-opacity="0.35"/>
<rect x="299.48" y="59.3779" width="9.48695" height="43.8212" fill="#FCB97B" fill-opacity="0.35"/>
<g filter="url(#filter2_d_322_838)">
<rect x="7.70947" y="27.21" width="101.161" height="174.538" fill="white"/>
</g>
<rect x="11.9087" y="69.1611" width="2.987" height="88.1036" fill="#373737"/>
<rect x="11.9087" y="157.266" width="92.7625" height="2.53203" fill="#373737"/>
<circle cx="81.7585" cy="106.022" r="1.22681" transform="rotate(32.429 81.7585 106.022)" fill="#52A9C6" fill-opacity="0.72"/>
<circle cx="81.7585" cy="106.022" r="1.08433" transform="rotate(32.429 81.7585 106.022)" stroke="black" stroke-opacity="0.53" stroke-width="0.28496"/>
<circle cx="53.0988" cy="129.852" r="1.22681" transform="rotate(95.344 53.0988 129.852)" fill="#52A9C6" fill-opacity="0.72"/>
<circle cx="53.0988" cy="129.852" r="1.08433" transform="rotate(95.344 53.0988 129.852)" stroke="black" stroke-opacity="0.53" stroke-width="0.28496"/>
<circle cx="40.0486" cy="136.717" r="1.22681" fill="#52A9C6" fill-opacity="0.72"/>
<circle cx="40.0486" cy="136.717" r="1.08433" stroke="black" stroke-opacity="0.53" stroke-width="0.28496"/>
<circle cx="50.1687" cy="121.177" r="1.22681" transform="rotate(54.6634 50.1687 121.177)" fill="#52A9C6" fill-opacity="0.72"/>
<circle cx="50.1687" cy="121.177" r="1.08433" transform="rotate(54.6634 50.1687 121.177)" stroke="black" stroke-opacity="0.53" stroke-width="0.28496"/>
<circle cx="43.9324" cy="127.364" r="1.22681" fill="#52A9C6" fill-opacity="0.72"/>
<circle cx="43.9324" cy="127.364" r="1.08433" stroke="black" stroke-opacity="0.53" stroke-width="0.28496"/>
<circle cx="79.8796" cy="119.245" r="1.22681" transform="rotate(-38.3706 79.8796 119.245)" fill="#52A9C6" fill-opacity="0.72"/>
<circle cx="79.8796" cy="119.245" r="1.08433" transform="rotate(-38.3706 79.8796 119.245)" stroke="black" stroke-opacity="0.53" stroke-width="0.28496"/>
<circle cx="51.9334" cy="119.467" r="1.22681" transform="rotate(54.6634 51.9334 119.467)" fill="#52A9C6" fill-opacity="0.72"/>
<circle cx="51.9334" cy="119.467" r="1.08433" transform="rotate(54.6634 51.9334 119.467)" stroke="black" stroke-opacity="0.53" stroke-width="0.28496"/>
<circle cx="43.5584" cy="124.936" r="1.22681" fill="#52A9C6" fill-opacity="0.72"/>
<circle cx="43.5584" cy="124.936" r="1.08433" stroke="black" stroke-opacity="0.53" stroke-width="0.28496"/>
<circle cx="50.951" cy="111.654" r="1.22681" transform="rotate(54.6634 50.951 111.654)" fill="#52A9C6" fill-opacity="0.72"/>
<circle cx="50.951" cy="111.654" r="1.08433" transform="rotate(54.6634 50.951 111.654)" stroke="black" stroke-opacity="0.53" stroke-width="0.28496"/>
<circle cx="57.9756" cy="125.466" r="1.22681" transform="rotate(-5.94162 57.9756 125.466)" fill="#52A9C6" fill-opacity="0.72"/>
<circle cx="57.9756" cy="125.466" r="1.08433" transform="rotate(-5.94162 57.9756 125.466)" stroke="black" stroke-opacity="0.53" stroke-width="0.28496"/>
<circle cx="76.8394" cy="115.375" r="1.22681" transform="rotate(-5.94162 76.8394 115.375)" fill="#52A9C6" fill-opacity="0.72"/>
<circle cx="76.8394" cy="115.375" r="1.08433" transform="rotate(-5.94162 76.8394 115.375)" stroke="black" stroke-opacity="0.53" stroke-width="0.28496"/>
<circle cx="44.8826" cy="136.63" r="1.22681" transform="rotate(40.6806 44.8826 136.63)" fill="#52A9C6" fill-opacity="0.72"/>
<circle cx="44.8826" cy="136.63" r="1.08433" transform="rotate(40.6806 44.8826 136.63)" stroke="black" stroke-opacity="0.53" stroke-width="0.28496"/>
<circle cx="53.8528" cy="137.897" r="1.22681" transform="rotate(40.6806 53.8528 137.897)" fill="#52A9C6" fill-opacity="0.72"/>
<circle cx="53.8528" cy="137.897" r="1.08433" transform="rotate(40.6806 53.8528 137.897)" stroke="black" stroke-opacity="0.53" stroke-width="0.28496"/>
<circle cx="34.5359" cy="116.485" r="1.22681" fill="#52A9C6" fill-opacity="0.72"/>
<circle cx="34.5359" cy="116.485" r="1.08433" stroke="black" stroke-opacity="0.53" stroke-width="0.28496"/>
<circle cx="73.2697" cy="92.9082" r="1.22681" transform="rotate(32.429 73.2697 92.9082)" fill="#52A9C6" fill-opacity="0.72"/>
<circle cx="73.2697" cy="92.9082" r="1.08433" transform="rotate(32.429 73.2697 92.9082)" stroke="black" stroke-opacity="0.53" stroke-width="0.28496"/>
<circle cx="73.0647" cy="112.77" r="1.22681" transform="rotate(54.6634 73.0647 112.77)" fill="#52A9C6" fill-opacity="0.72"/>
<circle cx="73.0647" cy="112.77" r="1.08433" transform="rotate(54.6634 73.0647 112.77)" stroke="black" stroke-opacity="0.53" stroke-width="0.28496"/>
<circle cx="72.0808" cy="104.957" r="1.22681" transform="rotate(54.6634 72.0808 104.957)" fill="#52A9C6" fill-opacity="0.72"/>
<circle cx="72.0808" cy="104.957" r="1.08433" transform="rotate(54.6634 72.0808 104.957)" stroke="black" stroke-opacity="0.53" stroke-width="0.28496"/>
<circle cx="60.1114" cy="122.277" r="1.22681" transform="rotate(-5.94162 60.1114 122.277)" fill="#52A9C6" fill-opacity="0.72"/>
<circle cx="60.1114" cy="122.277" r="1.08433" transform="rotate(-5.94162 60.1114 122.277)" stroke="black" stroke-opacity="0.53" stroke-width="0.28496"/>
<circle cx="48.6673" cy="135.99" r="1.22681" transform="rotate(40.6806 48.6673 135.99)" fill="#52A9C6" fill-opacity="0.72"/>
<circle cx="48.6673" cy="135.99" r="1.08433" transform="rotate(40.6806 48.6673 135.99)" stroke="black" stroke-opacity="0.53" stroke-width="0.28496"/>
<circle cx="57.6385" cy="137.258" r="1.22681" transform="rotate(40.6806 57.6385 137.258)" fill="#52A9C6" fill-opacity="0.72"/>
<circle cx="57.6385" cy="137.258" r="1.08433" transform="rotate(40.6806 57.6385 137.258)" stroke="black" stroke-opacity="0.53" stroke-width="0.28496"/>
<circle cx="65.001" cy="126.927" r="1.22681" transform="rotate(-5.94162 65.001 126.927)" fill="#52A9C6" fill-opacity="0.72"/>
<circle cx="65.001" cy="126.927" r="1.08433" transform="rotate(-5.94162 65.001 126.927)" stroke="black" stroke-opacity="0.53" stroke-width="0.28496"/>
<circle cx="36.3684" cy="149.751" r="1.22681" fill="#52A9C6" fill-opacity="0.72"/>
<circle cx="36.3684" cy="149.751" r="1.08433" stroke="black" stroke-opacity="0.53" stroke-width="0.28496"/>
<circle cx="61.7991" cy="112.663" r="1.22681" fill="#52A9C6" fill-opacity="0.72"/>
<circle cx="61.7991" cy="112.663" r="1.08433" stroke="black" stroke-opacity="0.53" stroke-width="0.28496"/>
<circle cx="57.2868" cy="125.314" r="1.22681" transform="rotate(95.344 57.2868 125.314)" fill="#52A9C6" fill-opacity="0.72"/>
<circle cx="57.2868" cy="125.314" r="1.08433" transform="rotate(95.344 57.2868 125.314)" stroke="black" stroke-opacity="0.53" stroke-width="0.28496"/>
<circle cx="35.1414" cy="132.969" r="1.22681" fill="#52A9C6" fill-opacity="0.72"/>
<circle cx="35.1414" cy="132.969" r="1.08433" stroke="black" stroke-opacity="0.53" stroke-width="0.28496"/>
<circle cx="50.3865" cy="115.007" r="1.22681" transform="rotate(54.6634 50.3865 115.007)" fill="#52A9C6" fill-opacity="0.72"/>
<circle cx="50.3865" cy="115.007" r="1.08433" transform="rotate(54.6634 50.3865 115.007)" stroke="black" stroke-opacity="0.53" stroke-width="0.28496"/>
<circle cx="39.0242" cy="123.616" r="1.22681" fill="#52A9C6" fill-opacity="0.72"/>
<circle cx="39.0242" cy="123.616" r="1.08433" stroke="black" stroke-opacity="0.53" stroke-width="0.28496"/>
<circle cx="67.6711" cy="108.584" r="1.22681" transform="rotate(32.429 67.6711 108.584)" fill="#52A9C6" fill-opacity="0.72"/>
<circle cx="67.6711" cy="108.584" r="1.08433" transform="rotate(32.429 67.6711 108.584)" stroke="black" stroke-opacity="0.53" stroke-width="0.28496"/>
<circle cx="45.6458" cy="129.018" r="1.22681" transform="rotate(40.6806 45.6458 129.018)" fill="#52A9C6" fill-opacity="0.72"/>
<circle cx="45.6458" cy="129.018" r="1.08433" transform="rotate(40.6806 45.6458 129.018)" stroke="black" stroke-opacity="0.53" stroke-width="0.28496"/>
<circle cx="54.6165" cy="130.285" r="1.22681" transform="rotate(40.6806 54.6165 130.285)" fill="#52A9C6" fill-opacity="0.72"/>
<circle cx="54.6165" cy="130.285" r="1.08433" transform="rotate(40.6806 54.6165 130.285)" stroke="black" stroke-opacity="0.53" stroke-width="0.28496"/>
<circle cx="29.532" cy="146.434" r="1.22681" fill="#52A9C6" fill-opacity="0.72"/>
<circle cx="29.532" cy="146.434" r="1.08433" stroke="black" stroke-opacity="0.53" stroke-width="0.28496"/>
<circle cx="41.4783" cy="127.972" r="1.22681" fill="#52A9C6" fill-opacity="0.72"/>
<circle cx="41.4783" cy="127.972" r="1.08433" stroke="black" stroke-opacity="0.53" stroke-width="0.28496"/>
<circle cx="50.1223" cy="115.323" r="1.22681" transform="rotate(54.6634 50.1223 115.323)" fill="#52A9C6" fill-opacity="0.72"/>
<circle cx="50.1223" cy="115.323" r="1.08433" transform="rotate(54.6634 50.1223 115.323)" stroke="black" stroke-opacity="0.53" stroke-width="0.28496"/>
<circle cx="39.1301" cy="124.017" r="1.22681" fill="#52A9C6" fill-opacity="0.72"/>
<circle cx="39.1301" cy="124.017" r="1.08433" stroke="black" stroke-opacity="0.53" stroke-width="0.28496"/>
<circle cx="73.9475" cy="106.642" r="1.22681" transform="rotate(54.6634 73.9475 106.642)" fill="#52A9C6" fill-opacity="0.72"/>
<circle cx="73.9475" cy="106.642" r="1.08433" transform="rotate(54.6634 73.9475 106.642)" stroke="black" stroke-opacity="0.53" stroke-width="0.28496"/>
<circle cx="80.8413" cy="133.701" r="1.22681" transform="rotate(-90.3754 80.8413 133.701)" fill="#52A9C6" fill-opacity="0.72"/>
<circle cx="80.8413" cy="133.701" r="1.08433" transform="rotate(-90.3754 80.8413 133.701)" stroke="black" stroke-opacity="0.53" stroke-width="0.28496"/>
<circle cx="72.6265" cy="113.95" r="1.22681" transform="rotate(-90.3754 72.6265 113.95)" fill="#52A9C6" fill-opacity="0.72"/>
<circle cx="72.6265" cy="113.95" r="1.08433" transform="rotate(-90.3754 72.6265 113.95)" stroke="black" stroke-opacity="0.53" stroke-width="0.28496"/>
<circle cx="37.9236" cy="116.508" r="1.22681" transform="rotate(54.6634 37.9236 116.508)" fill="#52A9C6" fill-opacity="0.72"/>
<circle cx="37.9236" cy="116.508" r="1.08433" transform="rotate(54.6634 37.9236 116.508)" stroke="black" stroke-opacity="0.53" stroke-width="0.28496"/>
<circle cx="63.1018" cy="147.88" r="1.22681" fill="#52A9C6" fill-opacity="0.72"/>
<circle cx="63.1018" cy="147.88" r="1.08433" stroke="black" stroke-opacity="0.53" stroke-width="0.28496"/>
<circle cx="85.9458" cy="129.286" r="1.22681" transform="rotate(-90.3754 85.9458 129.286)" fill="#52A9C6" fill-opacity="0.72"/>
<circle cx="85.9458" cy="129.286" r="1.08433" transform="rotate(-90.3754 85.9458 129.286)" stroke="black" stroke-opacity="0.53" stroke-width="0.28496"/>
<circle cx="53.9495" cy="115.618" r="1.22681" transform="rotate(54.6634 53.9495 115.618)" fill="#52A9C6" fill-opacity="0.72"/>
<circle cx="53.9495" cy="115.618" r="1.08433" transform="rotate(54.6634 53.9495 115.618)" stroke="black" stroke-opacity="0.53" stroke-width="0.28496"/>
<circle cx="41.5842" cy="121.064" r="1.22681" fill="#52A9C6" fill-opacity="0.72"/>
<circle cx="41.5842" cy="121.064" r="1.08433" stroke="black" stroke-opacity="0.53" stroke-width="0.28496"/>
<circle cx="52.9661" cy="107.804" r="1.22681" transform="rotate(54.6634 52.9661 107.804)" fill="#52A9C6" fill-opacity="0.72"/>
<circle cx="52.9661" cy="107.804" r="1.08433" transform="rotate(54.6634 52.9661 107.804)" stroke="black" stroke-opacity="0.53" stroke-width="0.28496"/>
<circle cx="66.9476" cy="144.053" r="1.22681" transform="rotate(-52.0049 66.9476 144.053)" fill="#52A9C6" fill-opacity="0.72"/>
<circle cx="66.9476" cy="144.053" r="1.08433" transform="rotate(-52.0049 66.9476 144.053)" stroke="black" stroke-opacity="0.53" stroke-width="0.28496"/>
<circle cx="69.5196" cy="122.938" r="1.22681" transform="rotate(-5.94162 69.5196 122.938)" fill="#52A9C6" fill-opacity="0.72"/>
<circle cx="69.5196" cy="122.938" r="1.08433" transform="rotate(-5.94162 69.5196 122.938)" stroke="black" stroke-opacity="0.53" stroke-width="0.28496"/>
<circle cx="41.2756" cy="146.25" r="1.22681" fill="#52A9C6" fill-opacity="0.72"/>
<circle cx="41.2756" cy="146.25" r="1.08433" stroke="black" stroke-opacity="0.53" stroke-width="0.28496"/>
<circle cx="59.8367" cy="100.289" r="1.22681" transform="rotate(54.6634 59.8367 100.289)" fill="#52A9C6" fill-opacity="0.72"/>
<circle cx="59.8367" cy="100.289" r="1.08433" transform="rotate(54.6634 59.8367 100.289)" stroke="black" stroke-opacity="0.53" stroke-width="0.28496"/>
<circle cx="43.3289" cy="137.772" r="1.22681" transform="rotate(40.6806 43.3289 137.772)" fill="#52A9C6" fill-opacity="0.72"/>
<circle cx="43.3289" cy="137.772" r="1.08433" transform="rotate(40.6806 43.3289 137.772)" stroke="black" stroke-opacity="0.53" stroke-width="0.28496"/>
<circle cx="75.4982" cy="104.522" r="1.22681" transform="rotate(32.429 75.4982 104.522)" fill="#52A9C6" fill-opacity="0.72"/>
<circle cx="75.4982" cy="104.522" r="1.08433" transform="rotate(32.429 75.4982 104.522)" stroke="black" stroke-opacity="0.53" stroke-width="0.28496"/>
<circle cx="51.5837" cy="123.595" r="1.22681" transform="rotate(95.344 51.5837 123.595)" fill="#52A9C6" fill-opacity="0.72"/>
<circle cx="51.5837" cy="123.595" r="1.08433" transform="rotate(95.344 51.5837 123.595)" stroke="black" stroke-opacity="0.53" stroke-width="0.28496"/>
<circle cx="33.9597" cy="138.808" r="1.22681" fill="#52A9C6" fill-opacity="0.72"/>
<circle cx="33.9597" cy="138.808" r="1.08433" stroke="black" stroke-opacity="0.53" stroke-width="0.28496"/>
<circle cx="44.9417" cy="117.419" r="1.22681" transform="rotate(54.6634 44.9417 117.419)" fill="#52A9C6" fill-opacity="0.72"/>
<circle cx="44.9417" cy="117.419" r="1.08433" transform="rotate(54.6634 44.9417 117.419)" stroke="black" stroke-opacity="0.53" stroke-width="0.28496"/>
<circle cx="27.0183" cy="135.091" r="1.22681" fill="#52A9C6" fill-opacity="0.72"/>
<circle cx="27.0183" cy="135.091" r="1.08433" stroke="black" stroke-opacity="0.53" stroke-width="0.28496"/>
<circle cx="73.186" cy="129.324" r="1.22681" transform="rotate(-90.3754 73.186 129.324)" fill="#52A9C6" fill-opacity="0.72"/>
<circle cx="73.186" cy="129.324" r="1.08433" transform="rotate(-90.3754 73.186 129.324)" stroke="black" stroke-opacity="0.53" stroke-width="0.28496"/>
<circle cx="102.76" cy="118.951" r="1.22681" fill="#52A9C6" fill-opacity="0.72"/>
<circle cx="102.76" cy="118.951" r="1.08433" stroke="black" stroke-opacity="0.53" stroke-width="0.28496"/>
<circle cx="59.9006" cy="145.141" r="1.22681" fill="#52A9C6" fill-opacity="0.72"/>
<circle cx="59.9006" cy="145.141" r="1.08433" stroke="black" stroke-opacity="0.53" stroke-width="0.28496"/>
<circle cx="83.227" cy="132.505" r="1.22681" transform="rotate(-90.3754 83.227 132.505)" fill="#52A9C6" fill-opacity="0.72"/>
<circle cx="83.227" cy="132.505" r="1.08433" transform="rotate(-90.3754 83.227 132.505)" stroke="black" stroke-opacity="0.53" stroke-width="0.28496"/>
<circle cx="46.7063" cy="115.709" r="1.22681" transform="rotate(54.6634 46.7063 115.709)" fill="#52A9C6" fill-opacity="0.72"/>
<circle cx="46.7063" cy="115.709" r="1.08433" transform="rotate(54.6634 46.7063 115.709)" stroke="black" stroke-opacity="0.53" stroke-width="0.28496"/>
<circle cx="37.4695" cy="127.027" r="1.22681" fill="#52A9C6" fill-opacity="0.72"/>
<circle cx="37.4695" cy="127.027" r="1.08433" stroke="black" stroke-opacity="0.53" stroke-width="0.28496"/>
<circle cx="70.532" cy="107.028" r="1.22681" transform="rotate(54.6634 70.532 107.028)" fill="#52A9C6" fill-opacity="0.72"/>
<circle cx="70.532" cy="107.028" r="1.08433" transform="rotate(54.6634 70.532 107.028)" stroke="black" stroke-opacity="0.53" stroke-width="0.28496"/>
<circle cx="54.5106" cy="140.71" r="1.22681" transform="rotate(-52.0049 54.5106 140.71)" fill="#52A9C6" fill-opacity="0.72"/>
<circle cx="54.5106" cy="140.71" r="1.08433" transform="rotate(-52.0049 54.5106 140.71)" stroke="black" stroke-opacity="0.53" stroke-width="0.28496"/>
<circle cx="78.2905" cy="124.908" r="1.22681" transform="rotate(-90.3754 78.2905 124.908)" fill="#52A9C6" fill-opacity="0.72"/>
<circle cx="78.2905" cy="124.908" r="1.08433" transform="rotate(-90.3754 78.2905 124.908)" stroke="black" stroke-opacity="0.53" stroke-width="0.28496"/>
<circle cx="34.2737" cy="127.775" r="1.22681" fill="#52A9C6" fill-opacity="0.72"/>
<circle cx="34.2737" cy="127.775" r="1.08433" stroke="black" stroke-opacity="0.53" stroke-width="0.28496"/>
<circle cx="63.3736" cy="105.507" r="1.22681" transform="rotate(87.0924 63.3736 105.507)" fill="#52A9C6" fill-opacity="0.72"/>
<circle cx="63.3736" cy="105.507" r="1.08433" transform="rotate(87.0924 63.3736 105.507)" stroke="black" stroke-opacity="0.53" stroke-width="0.28496"/>
<circle cx="65.4015" cy="113.55" r="1.22681" transform="rotate(32.429 65.4015 113.55)" fill="#52A9C6" fill-opacity="0.72"/>
<circle cx="65.4015" cy="113.55" r="1.08433" transform="rotate(32.429 65.4015 113.55)" stroke="black" stroke-opacity="0.53" stroke-width="0.28496"/>
<circle cx="73.1348" cy="114.894" r="1.22681" transform="rotate(-5.94162 73.1348 114.894)" fill="#52A9C6" fill-opacity="0.72"/>
<circle cx="73.1348" cy="114.894" r="1.08433" transform="rotate(-5.94162 73.1348 114.894)" stroke="black" stroke-opacity="0.53" stroke-width="0.28496"/>
<circle cx="42.6873" cy="133.608" r="1.22681" transform="rotate(40.6806 42.6873 133.608)" fill="#52A9C6" fill-opacity="0.72"/>
<circle cx="42.6873" cy="133.608" r="1.08433" transform="rotate(40.6806 42.6873 133.608)" stroke="black" stroke-opacity="0.53" stroke-width="0.28496"/>
<circle cx="51.658" cy="134.875" r="1.22681" transform="rotate(40.6806 51.658 134.875)" fill="#52A9C6" fill-opacity="0.72"/>
<circle cx="51.658" cy="134.875" r="1.08433" transform="rotate(40.6806 51.658 134.875)" stroke="black" stroke-opacity="0.53" stroke-width="0.28496"/>
<circle cx="30.2795" cy="151.843" r="1.22681" fill="#52A9C6" fill-opacity="0.72"/>
<circle cx="30.2795" cy="151.843" r="1.08433" stroke="black" stroke-opacity="0.53" stroke-width="0.28496"/>
<circle cx="30.9016" cy="115.624" r="1.22681" fill="#52A9C6" fill-opacity="0.72"/>
<circle cx="30.9016" cy="115.624" r="1.08433" stroke="black" stroke-opacity="0.53" stroke-width="0.28496"/>
<circle cx="46.1419" cy="119.062" r="1.22681" transform="rotate(54.6634 46.1419 119.062)" fill="#52A9C6" fill-opacity="0.72"/>
<circle cx="46.1419" cy="119.062" r="1.08433" transform="rotate(54.6634 46.1419 119.062)" stroke="black" stroke-opacity="0.53" stroke-width="0.28496"/>
<circle cx="29.053" cy="135.06" r="1.22681" fill="#52A9C6" fill-opacity="0.72"/>
<circle cx="29.053" cy="135.06" r="1.08433" stroke="black" stroke-opacity="0.53" stroke-width="0.28496"/>
<circle cx="69.968" cy="110.379" r="1.22681" transform="rotate(54.6634 69.968 110.379)" fill="#52A9C6" fill-opacity="0.72"/>
<circle cx="69.968" cy="110.379" r="1.08433" transform="rotate(54.6634 69.968 110.379)" stroke="black" stroke-opacity="0.53" stroke-width="0.28496"/>
<circle cx="54.6125" cy="128.807" r="1.22681" transform="rotate(95.344 54.6125 128.807)" fill="#52A9C6" fill-opacity="0.72"/>
<circle cx="54.6125" cy="128.807" r="1.08433" transform="rotate(95.344 54.6125 128.807)" stroke="black" stroke-opacity="0.53" stroke-width="0.28496"/>
<circle cx="38.8674" cy="135.307" r="1.22681" fill="#52A9C6" fill-opacity="0.72"/>
<circle cx="38.8674" cy="135.307" r="1.08433" stroke="black" stroke-opacity="0.53" stroke-width="0.28496"/>
<circle cx="50.6355" cy="119.398" r="1.22681" transform="rotate(54.6634 50.6355 119.398)" fill="#52A9C6" fill-opacity="0.72"/>
<circle cx="50.6355" cy="119.398" r="1.08433" transform="rotate(54.6634 50.6355 119.398)" stroke="black" stroke-opacity="0.53" stroke-width="0.28496"/>
<circle cx="42.7507" cy="125.954" r="1.22681" fill="#52A9C6" fill-opacity="0.72"/>
<circle cx="42.7507" cy="125.954" r="1.08433" stroke="black" stroke-opacity="0.53" stroke-width="0.28496"/>
<circle cx="48.6365" cy="127.902" r="1.22681" transform="rotate(40.6806 48.6365 127.902)" fill="#52A9C6" fill-opacity="0.72"/>
<circle cx="48.6365" cy="127.902" r="1.08433" transform="rotate(40.6806 48.6365 127.902)" stroke="black" stroke-opacity="0.53" stroke-width="0.28496"/>
<circle cx="69.7039" cy="110.697" r="1.22681" transform="rotate(54.6634 69.7039 110.697)" fill="#52A9C6" fill-opacity="0.72"/>
<circle cx="69.7039" cy="110.697" r="1.08433" transform="rotate(54.6634 69.7039 110.697)" stroke="black" stroke-opacity="0.53" stroke-width="0.28496"/>
<circle cx="68.721" cy="102.885" r="1.22681" transform="rotate(54.6634 68.721 102.885)" fill="#52A9C6" fill-opacity="0.72"/>
<circle cx="68.721" cy="102.885" r="1.08433" transform="rotate(54.6634 68.721 102.885)" stroke="black" stroke-opacity="0.53" stroke-width="0.28496"/>
<circle cx="78.7215" cy="142.961" r="1.22681" transform="rotate(-52.0049 78.7215 142.961)" fill="#52A9C6" fill-opacity="0.72"/>
<circle cx="78.7215" cy="142.961" r="1.08433" transform="rotate(-52.0049 78.7215 142.961)" stroke="black" stroke-opacity="0.53" stroke-width="0.28496"/>
<circle cx="74.7578" cy="120.024" r="1.22681" transform="rotate(-90.3754 74.7578 120.024)" fill="#52A9C6" fill-opacity="0.72"/>
<circle cx="74.7578" cy="120.024" r="1.08433" transform="rotate(-90.3754 74.7578 120.024)" stroke="black" stroke-opacity="0.53" stroke-width="0.28496"/>
<circle cx="57.5056" cy="111.882" r="1.22681" transform="rotate(54.6634 57.5056 111.882)" fill="#52A9C6" fill-opacity="0.72"/>
<circle cx="57.5056" cy="111.882" r="1.08433" transform="rotate(54.6634 57.5056 111.882)" stroke="black" stroke-opacity="0.53" stroke-width="0.28496"/>
<circle cx="73.5315" cy="110.992" r="1.22681" transform="rotate(54.6634 73.5315 110.992)" fill="#52A9C6" fill-opacity="0.72"/>
<circle cx="73.5315" cy="110.992" r="1.08433" transform="rotate(54.6634 73.5315 110.992)" stroke="black" stroke-opacity="0.53" stroke-width="0.28496"/>
<circle cx="72.5486" cy="103.18" r="1.22681" transform="rotate(54.6634 72.5486 103.18)" fill="#52A9C6" fill-opacity="0.72"/>
<circle cx="72.5486" cy="103.18" r="1.08433" transform="rotate(54.6634 72.5486 103.18)" stroke="black" stroke-opacity="0.53" stroke-width="0.28496"/>
<circle cx="80.09" cy="110.937" r="1.22681" transform="rotate(32.429 80.09 110.937)" fill="#52A9C6" fill-opacity="0.72"/>
<circle cx="80.09" cy="110.937" r="1.08433" transform="rotate(32.429 80.09 110.937)" stroke="black" stroke-opacity="0.53" stroke-width="0.28496"/>
<circle cx="57.5984" cy="133.128" r="1.22681" transform="rotate(40.6806 57.5984 133.128)" fill="#52A9C6" fill-opacity="0.72"/>
<circle cx="57.5984" cy="133.128" r="1.08433" transform="rotate(40.6806 57.5984 133.128)" stroke="black" stroke-opacity="0.53" stroke-width="0.28496"/>
<circle cx="59.9831" cy="113.821" r="1.22681" transform="rotate(32.429 59.9831 113.821)" fill="#52A9C6" fill-opacity="0.72"/>
<circle cx="59.9831" cy="113.821" r="1.08433" transform="rotate(32.429 59.9831 113.821)" stroke="black" stroke-opacity="0.53" stroke-width="0.28496"/>
<circle cx="69.0547" cy="118.47" r="1.22681" transform="rotate(-5.94162 69.0547 118.47)" fill="#52A9C6" fill-opacity="0.72"/>
<circle cx="69.0547" cy="118.47" r="1.08433" transform="rotate(-5.94162 69.0547 118.47)" stroke="black" stroke-opacity="0.53" stroke-width="0.28496"/>
<circle cx="37.2855" cy="133.099" r="1.22681" transform="rotate(40.6806 37.2855 133.099)" fill="#52A9C6" fill-opacity="0.72"/>
<circle cx="37.2855" cy="133.099" r="1.08433" transform="rotate(40.6806 37.2855 133.099)" stroke="black" stroke-opacity="0.53" stroke-width="0.28496"/>
<circle cx="63.5008" cy="97.6928" r="1.22681" transform="rotate(54.6634 63.5008 97.6928)" fill="#52A9C6" fill-opacity="0.72"/>
<circle cx="63.5008" cy="97.6928" r="1.08433" transform="rotate(54.6634 63.5008 97.6928)" stroke="black" stroke-opacity="0.53" stroke-width="0.28496"/>
<circle cx="76.0903" cy="121.99" r="1.22681" transform="rotate(-90.3754 76.0903 121.99)" fill="#52A9C6" fill-opacity="0.72"/>
<circle cx="76.0903" cy="121.99" r="1.08433" transform="rotate(-90.3754 76.0903 121.99)" stroke="black" stroke-opacity="0.53" stroke-width="0.28496"/>
<circle cx="54.7634" cy="123.892" r="1.22681" transform="rotate(95.344 54.7634 123.892)" fill="#52A9C6" fill-opacity="0.72"/>
<circle cx="54.7634" cy="123.892" r="1.08433" transform="rotate(95.344 54.7634 123.892)" stroke="black" stroke-opacity="0.53" stroke-width="0.28496"/>
<circle cx="33.9597" cy="135.614" r="1.22681" fill="#52A9C6" fill-opacity="0.72"/>
<circle cx="33.9597" cy="135.614" r="1.08433" stroke="black" stroke-opacity="0.53" stroke-width="0.28496"/>
<circle cx="47.5467" cy="115.573" r="1.22681" transform="rotate(54.6634 47.5467 115.573)" fill="#52A9C6" fill-opacity="0.72"/>
<circle cx="47.5467" cy="115.573" r="1.08433" transform="rotate(54.6634 47.5467 115.573)" stroke="black" stroke-opacity="0.53" stroke-width="0.28496"/>
<circle cx="37.8435" cy="126.261" r="1.22681" fill="#52A9C6" fill-opacity="0.72"/>
<circle cx="37.8435" cy="126.261" r="1.08433" stroke="black" stroke-opacity="0.53" stroke-width="0.28496"/>
<circle cx="71.6008" cy="97.8223" r="1.22681" transform="rotate(32.429 71.6008 97.8223)" fill="#52A9C6" fill-opacity="0.72"/>
<circle cx="71.6008" cy="97.8223" r="1.08433" transform="rotate(32.429 71.6008 97.8223)" stroke="black" stroke-opacity="0.53" stroke-width="0.28496"/>
<circle cx="64.1563" cy="105.841" r="1.22681" transform="rotate(87.0924 64.1563 105.841)" fill="#52A9C6" fill-opacity="0.72"/>
<circle cx="64.1563" cy="105.841" r="1.08433" transform="rotate(87.0924 64.1563 105.841)" stroke="black" stroke-opacity="0.53" stroke-width="0.28496"/>
<circle cx="44.8509" cy="117.557" r="1.22681" transform="rotate(54.6634 44.8509 117.557)" fill="#52A9C6" fill-opacity="0.72"/>
<circle cx="44.8509" cy="117.557" r="1.08433" transform="rotate(54.6634 44.8509 117.557)" stroke="black" stroke-opacity="0.53" stroke-width="0.28496"/>
<circle cx="27.0784" cy="135.243" r="1.22681" fill="#52A9C6" fill-opacity="0.72"/>
<circle cx="27.0784" cy="135.243" r="1.08433" stroke="black" stroke-opacity="0.53" stroke-width="0.28496"/>
<circle cx="68.677" cy="108.875" r="1.22681" transform="rotate(54.6634 68.677 108.875)" fill="#52A9C6" fill-opacity="0.72"/>
<circle cx="68.677" cy="108.875" r="1.08433" transform="rotate(54.6634 68.677 108.875)" stroke="black" stroke-opacity="0.53" stroke-width="0.28496"/>
<circle cx="61.8536" cy="127.165" r="1.22681" transform="rotate(-5.94162 61.8536 127.165)" fill="#52A9C6" fill-opacity="0.72"/>
<circle cx="61.8536" cy="127.165" r="1.08433" transform="rotate(-5.94162 61.8536 127.165)" stroke="black" stroke-opacity="0.53" stroke-width="0.28496"/>
<circle cx="80.7164" cy="117.074" r="1.22681" transform="rotate(-5.94162 80.7164 117.074)" fill="#52A9C6" fill-opacity="0.72"/>
<circle cx="80.7164" cy="117.074" r="1.08433" transform="rotate(-5.94162 80.7164 117.074)" stroke="black" stroke-opacity="0.53" stroke-width="0.28496"/>
<circle cx="46.3104" cy="140.615" r="1.22681" transform="rotate(40.6806 46.3104 140.615)" fill="#52A9C6" fill-opacity="0.72"/>
<circle cx="46.3104" cy="140.615" r="1.08433" transform="rotate(40.6806 46.3104 140.615)" stroke="black" stroke-opacity="0.53" stroke-width="0.28496"/>
<circle cx="55.2816" cy="141.882" r="1.22681" transform="rotate(40.6806 55.2816 141.882)" fill="#52A9C6" fill-opacity="0.72"/>
<circle cx="55.2816" cy="141.882" r="1.08433" transform="rotate(40.6806 55.2816 141.882)" stroke="black" stroke-opacity="0.53" stroke-width="0.28496"/>
<circle cx="74.772" cy="131.814" r="1.22681" transform="rotate(-90.3754 74.772 131.814)" fill="#52A9C6" fill-opacity="0.72"/>
<circle cx="74.772" cy="131.814" r="1.08433" transform="rotate(-90.3754 74.772 131.814)" stroke="black" stroke-opacity="0.53" stroke-width="0.28496"/>
<circle cx="38.217" cy="118.575" r="1.22681" fill="#52A9C6" fill-opacity="0.72"/>
<circle cx="38.217" cy="118.575" r="1.08433" stroke="black" stroke-opacity="0.53" stroke-width="0.28496"/>
<circle cx="52.1511" cy="126.066" r="1.22681" transform="rotate(95.344 52.1511 126.066)" fill="#52A9C6" fill-opacity="0.72"/>
<circle cx="52.1511" cy="126.066" r="1.08433" transform="rotate(95.344 52.1511 126.066)" stroke="black" stroke-opacity="0.53" stroke-width="0.28496"/>
<circle cx="78.9035" cy="111.825" r="1.22681" transform="rotate(32.429 78.9035 111.825)" fill="#52A9C6" fill-opacity="0.72"/>
<circle cx="78.9035" cy="111.825" r="1.08433" transform="rotate(32.429 78.9035 111.825)" stroke="black" stroke-opacity="0.53" stroke-width="0.28496"/>
<circle cx="36.3684" cy="138.012" r="1.22681" fill="#52A9C6" fill-opacity="0.72"/>
<circle cx="36.3684" cy="138.012" r="1.08433" stroke="black" stroke-opacity="0.53" stroke-width="0.28496"/>
<circle cx="46.9817" cy="118.924" r="1.22681" transform="rotate(54.6634 46.9817 118.924)" fill="#52A9C6" fill-opacity="0.72"/>
<circle cx="46.9817" cy="118.924" r="1.08433" transform="rotate(54.6634 46.9817 118.924)" stroke="black" stroke-opacity="0.53" stroke-width="0.28496"/>
<circle cx="40.2512" cy="128.66" r="1.22681" fill="#52A9C6" fill-opacity="0.72"/>
<circle cx="40.2512" cy="128.66" r="1.08433" stroke="black" stroke-opacity="0.53" stroke-width="0.28496"/>
<circle cx="44.9774" cy="128.325" r="1.22681" transform="rotate(40.6806 44.9774 128.325)" fill="#52A9C6" fill-opacity="0.72"/>
<circle cx="44.9774" cy="128.325" r="1.08433" transform="rotate(40.6806 44.9774 128.325)" stroke="black" stroke-opacity="0.53" stroke-width="0.28496"/>
<circle cx="66.0021" cy="113.498" r="1.22681" transform="rotate(32.429 66.0021 113.498)" fill="#52A9C6" fill-opacity="0.72"/>
<circle cx="66.0021" cy="113.498" r="1.08433" transform="rotate(32.429 66.0021 113.498)" stroke="black" stroke-opacity="0.53" stroke-width="0.28496"/>
<circle cx="73.5733" cy="114.481" r="1.22681" transform="rotate(-5.94162 73.5733 114.481)" fill="#52A9C6" fill-opacity="0.72"/>
<circle cx="73.5733" cy="114.481" r="1.08433" transform="rotate(-5.94162 73.5733 114.481)" stroke="black" stroke-opacity="0.53" stroke-width="0.28496"/>
<circle cx="43.2894" cy="133.643" r="1.22681" transform="rotate(40.6806 43.2894 133.643)" fill="#52A9C6" fill-opacity="0.72"/>
<circle cx="43.2894" cy="133.643" r="1.08433" transform="rotate(40.6806 43.2894 133.643)" stroke="black" stroke-opacity="0.53" stroke-width="0.28496"/>
<circle cx="52.2596" cy="134.91" r="1.22681" transform="rotate(40.6806 52.2596 134.91)" fill="#52A9C6" fill-opacity="0.72"/>
<circle cx="52.2596" cy="134.91" r="1.08433" transform="rotate(40.6806 52.2596 134.91)" stroke="black" stroke-opacity="0.53" stroke-width="0.28496"/>
<circle cx="30.759" cy="151.477" r="1.22681" fill="#52A9C6" fill-opacity="0.72"/>
<circle cx="30.759" cy="151.477" r="1.08433" stroke="black" stroke-opacity="0.53" stroke-width="0.28496"/>
<circle cx="31.3811" cy="115.259" r="1.22681" fill="#52A9C6" fill-opacity="0.72"/>
<circle cx="31.3811" cy="115.259" r="1.08433" stroke="black" stroke-opacity="0.53" stroke-width="0.28496"/>
<circle cx="46.718" cy="119.241" r="1.22681" transform="rotate(54.6634 46.718 119.241)" fill="#52A9C6" fill-opacity="0.72"/>
<circle cx="46.718" cy="119.241" r="1.08433" transform="rotate(54.6634 46.718 119.241)" stroke="black" stroke-opacity="0.53" stroke-width="0.28496"/>
<circle cx="40.3567" cy="129.059" r="1.22681" fill="#52A9C6" fill-opacity="0.72"/>
<circle cx="40.3567" cy="129.059" r="1.08433" stroke="black" stroke-opacity="0.53" stroke-width="0.28496"/>
<circle cx="70.5442" cy="110.56" r="1.22681" transform="rotate(54.6634 70.5442 110.56)" fill="#52A9C6" fill-opacity="0.72"/>
<circle cx="70.5442" cy="110.56" r="1.08433" transform="rotate(54.6634 70.5442 110.56)" stroke="black" stroke-opacity="0.53" stroke-width="0.28496"/>
<circle cx="85.8765" cy="132.442" r="1.22681" transform="rotate(-90.3754 85.8765 132.442)" fill="#52A9C6" fill-opacity="0.72"/>
<circle cx="85.8765" cy="132.442" r="1.08433" transform="rotate(-90.3754 85.8765 132.442)" stroke="black" stroke-opacity="0.53" stroke-width="0.28496"/>
<circle cx="77.6616" cy="112.689" r="1.22681" transform="rotate(-90.3754 77.6616 112.689)" fill="#52A9C6" fill-opacity="0.72"/>
<circle cx="77.6616" cy="112.689" r="1.08433" transform="rotate(-90.3754 77.6616 112.689)" stroke="black" stroke-opacity="0.53" stroke-width="0.28496"/>
<circle cx="50.7181" cy="125.482" r="1.22681" transform="rotate(40.6806 50.7181 125.482)" fill="#52A9C6" fill-opacity="0.72"/>
<circle cx="50.7181" cy="125.482" r="1.08433" transform="rotate(40.6806 50.7181 125.482)" stroke="black" stroke-opacity="0.53" stroke-width="0.28496"/>
<circle cx="50.5452" cy="119.536" r="1.22681" transform="rotate(54.6634 50.5452 119.536)" fill="#52A9C6" fill-opacity="0.72"/>
<circle cx="50.5452" cy="119.536" r="1.08433" transform="rotate(54.6634 50.5452 119.536)" stroke="black" stroke-opacity="0.53" stroke-width="0.28496"/>
<circle cx="42.8108" cy="126.107" r="1.22681" fill="#52A9C6" fill-opacity="0.72"/>
<circle cx="42.8108" cy="126.107" r="1.08433" stroke="black" stroke-opacity="0.53" stroke-width="0.28496"/>
<circle cx="74.3709" cy="110.855" r="1.22681" transform="rotate(54.6634 74.3709 110.855)" fill="#52A9C6" fill-opacity="0.72"/>
<circle cx="74.3709" cy="110.855" r="1.08433" transform="rotate(54.6634 74.3709 110.855)" stroke="black" stroke-opacity="0.53" stroke-width="0.28496"/>
<circle cx="71.6771" cy="146.192" r="1.22681" transform="rotate(-52.0049 71.6771 146.192)" fill="#52A9C6" fill-opacity="0.72"/>
<circle cx="71.6771" cy="146.192" r="1.08433" transform="rotate(-52.0049 71.6771 146.192)" stroke="black" stroke-opacity="0.53" stroke-width="0.28496"/>
<circle cx="77.093" cy="121.654" r="1.22681" transform="rotate(-38.3706 77.093 121.654)" fill="#52A9C6" fill-opacity="0.72"/>
<circle cx="77.093" cy="121.654" r="1.08433" transform="rotate(-38.3706 77.093 121.654)" stroke="black" stroke-opacity="0.53" stroke-width="0.28496"/>
<circle cx="42.5022" cy="151.294" r="1.22681" fill="#52A9C6" fill-opacity="0.72"/>
<circle cx="42.5022" cy="151.294" r="1.08433" stroke="black" stroke-opacity="0.53" stroke-width="0.28496"/>
<circle cx="56.4329" cy="104.206" r="1.22681" transform="rotate(54.6634 56.4329 104.206)" fill="#52A9C6" fill-opacity="0.72"/>
<circle cx="56.4329" cy="104.206" r="1.08433" transform="rotate(54.6634 56.4329 104.206)" stroke="black" stroke-opacity="0.53" stroke-width="0.28496"/>
<circle cx="50.1311" cy="146.406" r="1.22681" fill="#52A9C6" fill-opacity="0.72"/>
<circle cx="50.1311" cy="146.406" r="1.08433" stroke="black" stroke-opacity="0.53" stroke-width="0.28496"/>
<line x1="15.6936" y1="151.348" x2="91.948" y2="99.2498" stroke="#F68526" stroke-opacity="0.79" stroke-width="0.644958"/>
</g>
<defs>
<filter id="filter0_d_322_838" x="108.87" y="0.140158" width="118.258" height="191.636" filterUnits="userSpaceOnUse" color-interpolation-filters="sRGB">
<feFlood flood-opacity="0" result="BackgroundImageFix"/>
<feColorMatrix in="SourceAlpha" type="matrix" values="0 0 0 0 0 0 0 0 0 0 0 0 0 0 0 0 0 0 127 0" result="hardAlpha"/>
<feOffset dx="1.4248" dy="3.562"/>
<feGaussianBlur stdDeviation="4.2744"/>
<feComposite in2="hardAlpha" operator="out"/>
<feColorMatrix type="matrix" values="0 0 0 0 0 0 0 0 0 0 0 0 0 0 0 0 0 0 0.25 0"/>
<feBlend mode="normal" in2="BackgroundImageFix" result="effect1_dropShadow_322_838"/>
<feBlend mode="normal" in="SourceGraphic" in2="effect1_dropShadow_322_838" result="shape"/>
</filter>
<filter id="filter1_d_322_838" x="217.155" y="22.2232" width="118.258" height="191.636" filterUnits="userSpaceOnUse" color-interpolation-filters="sRGB">
<feFlood flood-opacity="0" result="BackgroundImageFix"/>
<feColorMatrix in="SourceAlpha" type="matrix" values="0 0 0 0 0 0 0 0 0 0 0 0 0 0 0 0 0 0 127 0" result="hardAlpha"/>
<feOffset dx="1.4248" dy="3.562"/>
<feGaussianBlur stdDeviation="4.2744"/>
<feComposite in2="hardAlpha" operator="out"/>
<feColorMatrix type="matrix" values="0 0 0 0 0 0 0 0 0 0 0 0 0 0 0 0 0 0 0.25 0"/>
<feBlend mode="normal" in2="BackgroundImageFix" result="effect1_dropShadow_322_838"/>
<feBlend mode="normal" in="SourceGraphic" in2="effect1_dropShadow_322_838" result="shape"/>
</filter>
<filter id="filter2_d_322_838" x="0.58548" y="22.2232" width="118.258" height="191.636" filterUnits="userSpaceOnUse" color-interpolation-filters="sRGB">
<feFlood flood-opacity="0" result="BackgroundImageFix"/>
<feColorMatrix in="SourceAlpha" type="matrix" values="0 0 0 0 0 0 0 0 0 0 0 0 0 0 0 0 0 0 127 0" result="hardAlpha"/>
<feOffset dx="1.4248" dy="3.562"/>
<feGaussianBlur stdDeviation="4.2744"/>
<feComposite in2="hardAlpha" operator="out"/>
<feColorMatrix type="matrix" values="0 0 0 0 0 0 0 0 0 0 0 0 0 0 0 0 0 0 0.25 0"/>
<feBlend mode="normal" in2="BackgroundImageFix" result="effect1_dropShadow_322_838"/>
<feBlend mode="normal" in="SourceGraphic" in2="effect1_dropShadow_322_838" result="shape"/>
</filter>
<clipPath id="clip0_322_838">
<rect width="334.828" height="213.72" fill="white" transform="translate(0.585938 0.139648)"/>
</clipPath>
</defs>
</svg>
