<svg width="110" height="29" viewBox="0 0 110 29" fill="none" xmlns="http://www.w3.org/2000/svg">
<path d="M12.2517 6.0237V28.0258H8.83147V6.0237H0V2.80762H21.0832V6.07475L12.2517 6.0237Z" fill="#3E8EDE"/>
<path d="M25.1152 28.0258V2.80762H28.5355V28.0258H25.1152Z" fill="#3E8EDE"/>
<path d="M52.4793 20.93C52.4793 25.1671 49.6205 28.1279 43.0352 28.1279H34.459V2.80762H42.8821C48.9569 2.80762 51.7135 5.56426 51.7135 9.49503C51.7135 12.1496 50.1821 13.9363 47.3744 15.0594C50.6415 15.8761 52.4793 18.0713 52.4793 20.93ZM43.1373 5.9216H37.9814V13.8342H42.6268C46.2513 13.8342 48.1912 12.2006 48.1912 9.80132C48.1912 7.40202 46.5065 5.9216 43.1373 5.9216ZM42.831 16.9992H37.8793V24.9118H43.3415C47.0681 24.9118 48.9058 23.5845 48.9058 20.981C49.059 17.9692 46.5065 16.9992 42.831 16.9992Z" fill="#3E8EDE"/>
<path d="M74.8366 7.35126C72.5905 5.92189 70.5996 5.2072 67.945 5.2072C62.4828 5.2072 58.7052 8.93377 58.7052 15.2128C58.7052 21.4918 62.4317 25.4226 67.945 25.4226C70.7017 25.4226 73.3052 24.2995 75.1429 22.9722L75.7555 26.3925C73.7136 27.7198 70.8038 28.5366 67.945 28.5366C60.594 28.6387 55.3359 23.4827 55.3359 15.468C55.3359 7.45335 60.594 2.19531 67.9961 2.19531C70.8548 2.19531 73.9688 3.0121 76.0108 4.33937L74.8366 7.35126Z" fill="#3E8EDE"/>
<path d="M96.7373 4.03251C96.3289 3.82831 95.9205 3.62412 95.5121 3.41992C92.1939 9.69894 86.2212 17.3052 78.3086 21.5423C78.8191 22.5633 79.3296 23.4822 80.0443 24.2989C86.9359 19.6024 93.2149 11.6899 96.7373 4.03251Z" fill="#3E8EDE"/>
<path d="M95.3079 3.21585C93.6744 2.50117 91.8876 2.09277 89.8457 2.09277C82.4436 2.09277 77.1855 7.8613 77.1855 15.3655C77.1855 16.6928 77.2876 17.8158 77.5939 18.8879C85.0981 15.876 91.8876 9.08648 95.3079 3.21585Z" fill="#3E8EDE"/>
<path d="M97.0419 4.13477C93.2133 13.783 88.4147 20.4194 82.3398 26.3411C84.3818 27.7704 86.8832 28.5872 89.844 28.5872C97.2461 28.5872 102.504 22.8187 102.504 15.3145C102.504 10.2096 100.411 6.32987 97.0419 4.13477Z" fill="#3E8EDE"/>
<path d="M102.508 3.31818C102.508 1.48042 103.937 0 105.775 0C107.613 0 109.042 1.53147 109.042 3.26713C109.042 5.10489 107.613 6.53427 105.775 6.53427C103.937 6.53427 102.508 5.1049 102.508 3.31818ZM108.583 3.31818C108.583 1.68462 107.357 0.357343 105.724 0.357343C104.09 0.357343 102.865 1.68462 102.865 3.31818C102.865 4.95175 104.09 6.27902 105.724 6.27902C107.357 6.27902 108.583 4.9007 108.583 3.31818ZM104.448 1.58252H105.979C106.694 1.58252 107.306 1.99091 107.306 2.6035C107.306 3.11399 107 3.52238 106.49 3.62448L107.409 4.84965H106.592L105.775 3.72657H105.06V4.84965H104.448V1.58252V1.58252ZM105.877 3.21608C106.285 3.21608 106.592 3.01189 106.592 2.70559C106.592 2.2972 106.388 2.19511 105.877 2.19511H105.06V3.31818L105.877 3.21608Z" fill="#3E8EDE"/>
</svg>
